<?xml version="1.0" standalone="no"?>
<!DOCTYPE svg PUBLIC "-//W3C//DTD SVG 1.1//EN" "http://www.w3.org/Graphics/SVG/1.1/DTD/svg11.dtd" >
<svg xmlns="http://www.w3.org/2000/svg">
<metadata></metadata>
<defs>
<font id="goudy_mediaevalbold" horiz-adv-x="368" >
<font-face units-per-em="1000" ascent="800" descent="-200" />
<missing-glyph horiz-adv-x="341" />
<glyph unicode="&#xd;" horiz-adv-x="190" d="M208 76q-15 33 -31 33l-31 -22v297q0 47 -21 47q-2 0 -5 -1l-6 -2l1 1q-129 -30 -129 -50q0 -11 43 -54q13 -13 13 -66v-248q0 -22 3 -26t22 -4t49 22z" />
<glyph horiz-adv-x="167" d="M303 662q2 4 2 10q0 35 -33 35q-18 0 -27 -18l-266 -537q-22 -43 -38.5 -73t-27.5 -49q-5 -8 -27 -30q-19 -19 -19 -37q0 -40 58 -40q19 0 33 8zM303 662v2v-2z" />
<glyph horiz-adv-x="390" d="M242 279v-248q0 -11 0.5 -17.5t2.5 -9.5t7.5 -3.5t14.5 -0.5q18 0 49 23l92 73q-15 33 -31 33l-31 -22v297q0 47 -21 47q-2 0 -5 -1l-6 -2q-51 -17 -81 -29.5t-41 -20.5h-55v147q0 64 1 69q6 36 32 36q28 0 119 -121q51 57 51 91q0 18 -45 59q-46 41 -71 41 q-51 0 -96 -25t-65 -64q-29 -57 -33 -239q-4 -2 -7 -4t-5 -4q-13 -9 -18 -14q-5 -10 -8 -18.5t-6 -22.5h49v-391q0 -23 21 -23q8 0 30 29q7 8 12 14.5t10 12.5q6 7 11.5 13.5t8.5 10.5l5 338h98q11 -16 11 -54z" />
<glyph horiz-adv-x="390" d="M243 556v-525q0 -11 0.5 -17.5t2.5 -9.5t7.5 -3.5t14.5 -0.5q18 0 49 23l92 73q-15 33 -31 33l-31 -22v574q0 46 -22 46h-4q-1 0 -6 -2l1 1q-32 -8 -59 -14q-19 8 -33 8q-51 0 -96 -25t-65 -64q-29 -57 -33 -239q-4 -2 -7 -4t-5 -4q-13 -9 -18 -14q-5 -10 -8 -18.5 t-6 -22.5h49v-391q0 -23 21 -23q8 0 30 29q7 8 12 14.5t10 12.5q6 7 11.5 13.5t8.5 10.5l5 338h60l20 65h-76v147q0 64 1 69q6 36 32 36q28 0 71 -55q1 -6 1.5 -16t0.5 -23z" />
<glyph horiz-adv-x="556" d="M5 195l31 -59l76 39v-38q0 -70 -5 -93q-3 -12 -13 -12h-85v-54q22 0 57 1.5t73 3.5q17 1 30.5 1.5t23.5 1.5q12 1 18.5 1.5t8.5 0.5h273v-133h57v261q-49 0 -113 -37q-61 -35 -133 -35h-74v191l100 52l-31 59l-69 -36v276h119v54h-187q-20 0 -57.5 5t-93.5 14l-18 -55 l107 -16q12 -2 12 -62v-276z" />
<glyph horiz-adv-x="251" d="M-11 266l31 -59l59 30v-226q0 -22 3 -26t22 -4t49 22l92 73q-15 33 -31 33l-31 -22v203l92 48l-31 59l-61 -32v330q0 47 -21 47q-2 0 -5 -1l-6 -2l1 1q-130 -30 -130 -50q0 -10 44 -54q13 -13 13 -66v-258z" />
<glyph horiz-adv-x="626" d="M631 7q0 68 -79 85q-29 6 -139 6q-60 0 -130 -2t-153 -5l423 488q12 14 18.5 23t6.5 15q0 30 -21 30l-510 -2q-41 -9 -45 -44l-8 -64q0 -27 24 -27q7 0 11.5 3.5t9.5 8.5q5 4 9.5 7.5t8.5 5.5q19 8 50 8h335l-438 -505q-18 -21 -18 -31q0 -23 24 -23q3 0 8.5 0.5 t12.5 1.5t18.5 2t13.5 1h370q60 0 83 -4l4 -1t9 -3v1l15 -5t21 -6q1 -9 1.5 -18t0.5 -18q0 -39 -12 -87h56q11 57 15.5 96.5t4.5 62.5zM418 802v1l8 16q0 14 -15 14h-80l-29 -56l-30 56h-80q-15 0 -15 -14q0 -5 2 -7.5l6 -7.5v-2l82 -99q1 -7 14 -11h41q10 4 13 10z" />
<glyph horiz-adv-x="402" d="M414 3q0 39 -37 52q-38 16 -149 16h-104l111 140q60 72 98 115t55 57l-37 39q-42 -57 -65 -57q-14 0 -96 22q-48 11 -85 19t-57 12l-62 -97l39 -15l26 20l177 -41l-220 -276v-30q54 3 99.5 5t74.5 2q46 0 89.5 -4t87.5 -12v-39h36q19 35 19 72zM309 588v1l8 16 q0 14 -15 14h-80l-30 -56l-29 56h-80q-15 0 -15 -14q0 -5 2 -7.5l6 -7.5v-2l82 -99q1 -7 14 -11h41q10 4 13 10z" />
<glyph unicode=" "  horiz-adv-x="341" />
<glyph unicode="&#x09;" horiz-adv-x="341" />
<glyph unicode="&#xa0;" horiz-adv-x="341" />
<glyph unicode="!" horiz-adv-x="190" d="M135 730l-103 -37l19 -595l88 36q4 151 6 298.5t3 288.5zM165 17q-14 27 -31 46.5t-34 33.5l-76 -72q17 -31 32 -51.5t31 -29.5q34 11 77 62z" />
<glyph unicode="&#x22;" horiz-adv-x="370" d="M352 604q9 9 9 21q0 13 -13 26l-56 54q-6 6 -14 6q-10 0 -20 -10l-57 -59q-7 -9 -7 -18q0 -12 8 -21l35 -43q-4 -5 -9 -9.5t-16 -15.5q-16 -16 -16 -27q0 -34 21 -34q15 0 24 9zM182 604q9 9 9 21q0 13 -13 26l-56 54q-6 6 -14 6q-10 0 -20 -10l-57 -59q-7 -9 -7 -18 q0 -12 8 -21l35 -43q-4 -5 -9 -9.5t-16 -15.5q-16 -16 -16 -27q0 -34 21 -34q15 0 24 9z" />
<glyph unicode="#" horiz-adv-x="391" d="M369 170q0 21 -6.5 39t-17 31.5t-24.5 21.5t-29 8h-1l-63 -3v69l85 -38l31 111l-42 19l-8 -28q-11 4 -18 5.5t-11 3.5q-11 2 -20 4t-17 3v39h-52v-41q-27 -6 -63 -18q-14 -5 -26.5 -16t-22 -26.5t-15 -34t-5.5 -37.5q0 -43 27 -80q28 -38 65 -38h40v-102q-35 9 -116 62 l-56 -136l48 -13l22 42q21 -6 36 -11t24 -7q16 -5 42 -6v-106h52v107q83 11 125 104q16 36 16 72zM287 138q0 -38 -13.5 -62t-33.5 -24q-9 0 -12 1v120q16 9 20 9q39 0 39 -44zM122 311q0 44 37 44q7 0 17 -5v-92h-5q-23 0 -36 15t-13 38z" />
<glyph unicode="$" horiz-adv-x="594" d="M569 228q0 68 -31.5 111t-82.5 43h-128v135q14 -4 25.5 -6.5t15.5 -3.5h-1q32 -18 53.5 -32t34.5 -24q37 0 42 69q3 35 27 98l-50 30l-21 -43q-38 11 -69 16.5t-57 6.5v53h-61v-54q-96 -6 -153 -48q-74 -55 -74 -159q0 -80 33 -125.5t92 -47.5q61 -3 102 -3v-207 q-22 5 -40.5 12.5t-34.5 15.5q-12 7 -47 27.5t-83 50.5l-74 -219l60 -23l26 92q119 -46 193 -49v-186h61v187q45 4 83.5 23t73.5 51q85 82 85 209zM448 175q0 -72 -24.5 -114.5t-65.5 -42.5q-13 0 -31 6v230q21 7 45 7q76 0 76 -86zM152 467q0 85 62 85h29q13 -2 23 -10 v-162l-46 -8h-6q-62 0 -62 95z" />
<glyph unicode="%" horiz-adv-x="454" d="M418 562q2 4 2 10q0 26 -30 26q-32 0 -44 -25l-249 -499v1q-13 -26 -28 -51t-33 -50q-28 -42 -28 -55q0 -7 20.5 -15t42.5 -8q21 0 35 9zM252 469q0 134 -94 134q-53 0 -93 -45q-40 -46 -40 -103q0 -65 28.5 -100.5t78.5 -35.5q120 0 120 150zM429 101q0 127 -88 127 q-59 0 -95 -44t-36 -114q0 -58 25 -91.5t69 -33.5q125 0 125 156zM183 426q0 -58 -27 -58q-23 0 -42 31h1q-21 36 -21 68q0 31 12 58q10 24 21 24q26 0 41 -33.5t15 -89.5zM360 64q0 -65 -27 -65q-23 0 -39.5 23t-16.5 58q0 42 8 68.5t21 26.5q23 0 38.5 -32t15.5 -79z" />
<glyph unicode="&#x26;" horiz-adv-x="715" d="M721 352q0 20 -25 33.5t-94 27.5q-28 -66 -46 -107.5t-23 -52.5q-20 -39 -34 -39q-4 0 -15 29q-10 26 -20 44t-18 31q-33 47 -87 68l-99 38q-7 3 -15 11.5t-16 25.5q-17 34 -17 60q0 27 22.5 46t54.5 19q28 0 49 -32q32 -48 38 -54q25 0 46 22q21 24 21 48q0 27 -44 54 l1 -1q-41 27 -80 27q-87 0 -150 -49q-62 -49 -62 -126q0 -43 40 -101l-73 -52q-11 -8 -20.5 -23t-17.5 -37q-17 -41 -17 -81q0 -97 71 -168q73 -71 171 -71q23 0 43.5 5.5t42 17.5t44.5 31.5t51 46.5q70 -89 116 -89q40 0 61 24h-1q26 29 50.5 57t39.5 45l-46 31l-55 -62 q0 1 -3 1q-22 0 -41 19q-27 27 -35 85q15 14 30.5 37t32.5 57q27 56 30 56q12 0 63 -27q36 50 36 75zM359 40q-14 -14 -47 -14q-65 0 -116 45q-65 56 -65 157q0 24 6 44.5t16 36t23.5 24.5t28.5 9q66 0 122 -55q18 -17 28.5 -38.5t20.5 -44.5q2 -3 2.5 -6t2.5 -6 q11 -29 18.5 -51.5t12.5 -39.5l-54 -61h1z" />
<glyph unicode="'" horiz-adv-x="230" d="M195 604q9 9 9 21q0 13 -13 26l-56 54q-6 6 -14 6q-10 0 -20 -10l-57 -59q-7 -9 -7 -18q0 -12 8 -21l35 -43q-4 -5 -9 -9.5t-16 -15.5q-16 -16 -16 -27q0 -34 21 -34q15 0 24 9z" />
<glyph unicode="(" horiz-adv-x="325" d="M286 733q0 6 -0.5 9t-2.5 17q-103 85 -130 85q-19 0 -39 -33t-31 -84l-39 -181q-17 -82 -17 -198q0 -167 37 -312q30 -123 79 -206q46 -79 79 -79q16 0 33 5q-84 139 -107 226t-23 251q0 262 84 495q5 16 16 16q16 0 45 -19z" />
<glyph unicode=")" horiz-adv-x="325" d="M259 347q0 189 -55 375l-6 18t-5 18q-2 5 -4 14.5t-5 21.5q-20 50 -46 50q-38 0 -125 -99q0 -13 24 -41q9 9 13.5 13t8.5 7q2 2 4 3.5t4 3.5q3 2 5.5 4t5.5 3h1q8 0 16 -15l-1 1q79 -252 79 -471q0 -143 -18 -249q-10 -56 -27 -117t-43 -127q17 -5 30 -5q25 0 48 47.5 t48 142.5q48 193 48 402z" />
<glyph unicode="*" horiz-adv-x="325" d="M252 524q0 23 -23 43q-5 3 -10.5 8t-10.5 8q-2 1 -3.5 2t-3.5 2l23 17q14 11 21 23t7 22q0 35 -36 35q-17 0 -35 -10q-8 44 -37 44q-32 0 -39 -45q-20 11 -39 11q-16 0 -26 -12t-10 -27q0 -23 44 -53q-41 -35 -41 -56q0 -40 37 -40q17 0 34 14q6 -47 40 -47q36 0 36 35v3 q16 -13 34 -13q4 0 10.5 4t12.5 9.5t10.5 11.5t4.5 11z" />
<glyph unicode="+" horiz-adv-x="532" d="M300 295l200 -8l-34 -86l-166 4l-2 -204l-88 -27v231q-73 -2 -117.5 -3.5t-60.5 -1.5l9 9l-19 3q2 5 2.5 7t2.5 12q1 2 1.5 4t1.5 4l-1 -1q11 48 27 50q38 5 72.5 6.5t67.5 1.5h14v188l90 23v-212z" />
<glyph unicode="," horiz-adv-x="242" d="M187 2q9 12 9 22q0 14 -13 26v-1l-56 54q-8 8 -16 8h-2q-5 0 -17 -13l1 1l-57 -59q-7 -9 -7 -18q0 -12 8 -21l34 -41q-5 -5 -10 -11l-10 -12q-12 -12 -12 -23q0 -34 21 -34q17 0 25 10l-1 -1z" />
<glyph unicode="-" horiz-adv-x="362" d="M344 266q0 24 -38 24h-7l-216 -13q-55 -4 -55 -47q0 -15 11 -27.5t25 -12.5l218 8q26 1 44 22t18 46z" />
<glyph unicode="." horiz-adv-x="230" d="M174 0q10 12 10 23q0 12 -15 24l-53 43q-8 5 -14 5q-11 0 -18 -10v1l-43 -50q-10 -12 -10 -22q0 -13 14 -23h-1l47 -41v1q9 -9 20 -9q13 0 21 11v-1z" />
<glyph unicode="/" horiz-adv-x="394" d="M407 662q2 4 2 10q0 35 -33 35q-18 0 -27 -18l-267 -537q-22 -43 -38.5 -73t-27.5 -49q-4 -8 -26 -30q-19 -19 -19 -37q0 -40 57 -40q19 0 33 8zM407 662v2v-2z" />
<glyph unicode="0" horiz-adv-x="432" d="M421 204q0 246 -177 246q-101 0 -164 -68q-62 -68 -62 -178q0 -102 53 -165q53 -65 139 -65q35 0 77 12h-1q48 12 74 32q61 45 61 186zM329 115q0 -74 -52 -74q-72 0 -112 57.5t-40 158.5q0 126 56 126q59 0 102 -79q46 -84 46 -189z" />
<glyph unicode="1" horiz-adv-x="354" d="M275 15v436l-246 -37v-55l119 17q2 0 3 0.5t3 0.5q8 0 11.5 -11t3.5 -38v-222q0 -29 -2.5 -63t-7.5 -72z" />
<glyph unicode="2" horiz-adv-x="514" d="M499 43q1 5 1 9v9q0 20 -7.5 26.5t-27.5 6.5h-204q137 108 137 214q0 62 -54 103q-51 39 -134 39q-79 0 -137 -35v1q-58 -35 -58 -91q0 -34 25.5 -56t58.5 -22l20 37q-41 22 -41 36q0 22 18 35t50 13q57 0 96 -29q38 -29 38 -68q0 -26 -20 -68q-21 -45 -51 -72v1 q-19 -17 -41 -30.5t-48 -25.5l-54 -24q-4 -2 -11 -4.5t-11 -4.5v-53h188q37 0 115 -6q39 -4 68.5 -5.5t49.5 -1.5q9 0 14.5 1.5t9 7.5t6 19.5t4.5 37.5z" />
<glyph unicode="3" horiz-adv-x="458" d="M449 -101q0 72 -41 118h1q-17 20 -48 40.5t-79 42.5q67 43 94.5 85.5t27.5 96.5q0 72 -56 120v-1q-55 49 -139 49q-72 0 -135 -40q-47 -30 -62 -64l32 -32q59 46 99 46q122 0 122 -102q0 -63 -46.5 -105.5t-133.5 -55.5q-2 -10 -4 -21.5t-4 -22.5t-4 -20.5t-3 -15.5h110 q55 0 98 -46q45 -47 45 -101q0 -68 -49 -117q-50 -51 -114 -51q-24 0 -54 4t-65 12l-24 -37q43 -37 122 -37q148 0 229 69q81 67 81 186z" />
<glyph unicode="4" horiz-adv-x="582" d="M572 68l-139 20v314q0 35 -20 35q-14 0 -26 -12q-6 -6 -11.5 -11t-11.5 -10t-12 -11.5t-11 -11.5q-38 -36 -83.5 -82.5t-97.5 -104.5q-42 -48 -71.5 -82.5t-46.5 -55.5q-31 -32 -31 -49q0 -22 44 -22l278 5v-304l98 28l2 275l105 -16zM151 82h-4q-10 0 -10 2l76 91 q107 128 122 128q-2 0 -2 -43v-170h-15q-35 0 -76.5 -1.5t-90.5 -6.5z" />
<glyph unicode="5" horiz-adv-x="406" d="M382 -56q0 67 -39 130q-40 65 -97 90q-32 14 -60.5 28.5t-53.5 29.5q-41 25 -41 26l45 81q4 8 19 12t39 4h161q22 48 22 59q0 20 -5 23t-28 3h-214l-107 -180q-7 -11 -7 -31q0 -44 57 -80q133 -84 166 -122q28 -31 28 -93q0 -92 -43 -156q-38 -55 -72 -55q-5 0 -11 3 l-79 44q-5 3 -9 3.5t-6 0.5q-21 0 -38 -23q-16 -24 -16 -39q0 -21 41 -46q39 -24 78 -24q58 0 125 47q66 44 103 112q42 75 42 153z" />
<glyph unicode="6" horiz-adv-x="428" d="M413 188q0 113 -48 178t-131 65q-36 0 -69 -16q-4 -2 -8 -4.5t-7 -4.5q49 136 116 144q62 7 84.5 15.5t22.5 25.5q0 33 -28 33h-103q-88 0 -159 -106q-67 -105 -67 -235q0 -129 62 -221q64 -91 156 -91q75 0 127 64q52 66 52 153zM310 157q0 -48 -13 -76.5t-35 -28.5 q-47 0 -90 77q-41 76 -41 139q0 68 56 68q57 0 90 -49t33 -130z" />
<glyph unicode="7" horiz-adv-x="553" d="M544 408q0 39 -66 39l-296 2h-15q-37 0 -62.5 -2t-42 -7t-25 -13t-11.5 -20q-11 -42 -17 -65.5t-6 -33.5l41 -22q30 47 89 48l285 9h5q11 0 13 -4l-193 -393q-21 -42 -39 -75.5t-34 -59.5q-10 -16 -32 -49.5t-51 -76.5q57 -26 78 -26q18 0 24 12q355 720 355 737z" />
<glyph unicode="8" horiz-adv-x="431" d="M416 181q0 50 -27 83q-26 32 -85 69q78 73 78 136q0 68 -49 111t-120 43q-81 0 -126.5 -46.5t-45.5 -127.5q0 -20 3 -35.5t10 -29.5t18.5 -28.5t28.5 -30.5q-48 -29 -66.5 -63t-18.5 -87q0 -87 53 -146q54 -58 136 -58q90 0 150 60q61 60 61 150zM315 132 q0 -35 -16.5 -58.5t-39.5 -23.5q-48 0 -95 47q-48 48 -48 107v4q2 64 42 64q63 0 110 -42q47 -44 47 -98zM275 446q0 -35 -15 -57.5t-38 -22.5q-31 0 -57 38t-26 88q0 29 16.5 47.5t41.5 18.5q35 0 56.5 -31t21.5 -81z" />
<glyph unicode="9" horiz-adv-x="431" d="M415 113q0 79 -14.5 141.5t-41.5 106t-65.5 66.5t-87.5 23q-87 0 -141 -61q-53 -61 -53 -156q0 -104 52 -173q53 -68 139 -68q36 0 74 27q7 5 12.5 9.5t10.5 8.5v-14q0 -68 -42 -176q-21 -51 -52 -88l1 1q-35 -39 -67 -39h-70l-6 -40l10 8l4 -4t12 -9.5t19 -9.5t25 -4 q127 0 205 128q76 122 76 323zM296 164q0 -80 -56 -80t-90 52q-35 52 -35 144q0 96 40 96q57 0 98 -64q43 -64 43 -148z" />
<glyph unicode=":" horiz-adv-x="215" d="M174 259q10 12 10 23q0 12 -15 24l-53 43q-8 5 -14 5q-11 0 -18 -10v1l-43 -50q-10 -12 -10 -22q0 -12 13 -24l47 -41v1q9 -9 20 -9q13 0 21 11v-1zM174 7q10 12 10 23q0 12 -15 24l-53 43q-8 5 -14 5q-11 0 -18 -10v1l-43 -50q-10 -12 -10 -22q0 -12 13 -24l48 -40 q10 -8 19 -8q13 0 21 11v-1z" />
<glyph unicode=";" horiz-adv-x="225" d="M187 2q9 12 9 22q0 14 -13 26v-1l-56 54q-8 8 -16 8h-2q-5 0 -17 -13l-56 -58q-7 -9 -7 -18q0 -12 8 -21l34 -41q-5 -5 -10 -11l-10 -12q-12 -12 -12 -23q0 -34 21 -34q15 0 24 9zM174 259q10 12 10 23q0 12 -15 24l-53 43q-8 5 -14 5q-11 0 -18 -10v1l-43 -50 q-10 -12 -10 -22q0 -12 13 -24l47 -41v1q9 -9 20 -9q13 0 21 11v-1z" />
<glyph unicode="&#x3c;" horiz-adv-x="426" d="M386 62q0 21 -34 47q-13 11 -28.5 20t-32.5 16l-114 49q-31 10 -31 20q0 3 30 23v-1q63 38 123 56q2 1 5 1.5t5 1.5l-1 -1q20 5 34.5 7.5t24.5 4.5q20 3 20 34q0 12 -3 29q-4 21 -21 21h-4q-3 -1 -10 -3.5t-14 -4.5q-34 -17 -58.5 -28.5t-43.5 -19.5q-35 -14 -67.5 -31.5 t-64.5 -39.5q-73 -49 -73 -74q0 -21 60 -52q65 -33 119 -59.5t99 -48.5q1 -1 1 -2l2 -2q5 -5 8 -9q8 -11 18 -11q15 0 33 22q18 21 18 35z" />
<glyph unicode="=" horiz-adv-x="512" d="M484 306q0 24 -38 24h-6l-356 -13q-56 -1 -56 -47q0 -15 11 -27.5t25 -12.5l358 8q25 0 45 24q17 20 17 44zM484 150q0 24 -38 24h-6l-356 -13q-56 -1 -56 -47q0 -15 11 -27.5t25 -12.5l358 8q25 0 45 24q17 20 17 44z" />
<glyph unicode="&#x3e;" horiz-adv-x="426" d="M396 229q0 20 -60 52q-65 32 -119.5 59t-98.5 49q-4 3 -11 14q-9 12 -18 12q-15 0 -34 -23q-17 -21 -17 -36q0 -22 34 -47q13 -11 28.5 -20t32.5 -16l114 -49q31 -10 31 -20q0 -4 -30 -23v1q-63 -38 -123 -56h2q-14 -2 -25 -2h-20h-13q-5 0 -10 1q-22 -3 -22 -34 q0 -13 3 -29q4 -21 21 -21h4l5.5 2t15.5 5v-1q32 9 58 18.5t47 18.5q35 14 67.5 31.5t64.5 39.5q73 49 73 74z" />
<glyph unicode="?" horiz-adv-x="553" d="M534 527q0 82 -50 141q-50 62 -121 62q-92 0 -176 -66q-71 -54 -123 -137q-46 -74 -46 -124q0 -96 49 -154l88 42q-13 22 -16 31q-6 11 -10 23q-6 17 -9.5 35t-3.5 38q0 105 58 173v-1q59 68 146 68q50 0 79 -35t29 -93q0 -93 -64 -212q-68 -123 -184 -208q38 -13 63 -13 q25 17 41 30t25 22l101 101q26 26 48 58.5t39 73.5q37 81 37 145zM312 17q-14 27 -31 46.5t-34 33.5l-76 -72q17 -31 32 -51.5t31 -29.5q34 11 77 62z" />
<glyph unicode="@" horiz-adv-x="631" d="M620 154q-97 -44 -169.5 -66t-123.5 -22q-88 0 -146 54q-64 57 -64 151q0 101 79 174q70 66 141 66q91 0 145 -42q56 -44 56 -125q0 -83 -97 -123q-7 -4 -13 -5l52 196l-78 1q-6 -6 -10 -14q-20 20 -48 20q-124 0 -160 -138q-8 -34 -8 -59q0 -90 81 -90q12 0 32 10l40 19 v-1q0 -26 23 -26q57 0 120 33q132 70 132 177q0 128 -91 191q-72 49 -171 49q-116 0 -211 -92q-100 -99 -100 -240q0 -103 83 -181q80 -77 179 -77q31 0 85 15l142 40q32 13 61 24.5t43 18.5q4 16 6.5 28.5t3.5 23.5zM371 338l-25 -93q-8 -23 -10 -24l-47 -21h2h-2 q-2 -1 -3 -1v0q-19 0 -19 46q0 14 2 27.5t6 28.5v-1q20 67 44 67q29 0 44 -15q9 -9 9 -13q0 -1 -0.5 -1.5t-0.5 -1.5v2z" />
<glyph unicode="A" horiz-adv-x="696" d="M704 0v34q-22 5 -37.5 8.5t-26.5 4.5q-7 2 -10 19l-41 232q-10 56 -21 111t-23 110q-14 65 -14 88q0 11 1 11l74 15v48q-46 0 -88 -3t-84 -8q-45 -6 -108 -6q-102 0 -288 24v-50q17 -10 36 -16t38 -7l109 -5h-1q3 -2 3 -8q0 -11 -12 -41q-10 -23 -14.5 -36.5l-5.5 -16.5 v2q-37 -123 -65.5 -221t-50.5 -173q-7 -22 -10 -34t-4 -14v1q-8 -17 -35 -26v1q-7 -2 -15 -5.5t-11 -5.5v-43q34 0 69 3q34 3 43 3q30 0 49.5 4t31 9t16 9t3.5 4l10 -10v39l-69 2q-8 2 -8 27q0 35 26 133q13 50 33 61q22 12 119 18q8 1 25.5 2.5t44.5 5.5q13 2 21 3t13 1.5 t9.5 1t10.5 1.5q16 0 21 -39l17 -195v-3q0 -11 -6 -12l1 1q-10 -3 -18.5 -6t-15.5 -5t-15.5 -4.5t-13.5 -4.5v-44q42 3 80.5 5t64.5 2q33 0 131 -12zM448 395q0 -9 -13 -11l-175 -8h-8q-32 0 -32 7q0 23 20 81l50 145l103 1l38 -140q17 -63 17 -75z" />
<glyph unicode="B" horiz-adv-x="614" d="M591 193q0 31 -6.5 56t-21.5 46.5t-39.5 40.5t-59.5 38q48 30 67 63t19 81q0 75 -50 123t-129 48q-62 0 -95 -21l-65 -41q-11 -8 -33 -8h-8q-3 0 -8 1l-161 18v-52l98 -12q23 -3 23 -113v-286q0 -26 -1.5 -46.5t-3.5 -36.5l-106 -24v-54q59 11 92.5 16.5t41.5 5.5 q27 0 118 -31q65 -22 96 -22q99 0 165 60q67 61 67 150zM476 181q0 -56 -37 -102q-37 -43 -80 -43q-29 0 -69 17q-38 18 -43 29q-8 16 -8 74v19l3 360q0 35 22.5 56t57.5 21q47 0 77 -33t30 -83q0 -106 -124 -106l-5 -46q93 -18 134.5 -57t41.5 -106z" />
<glyph unicode="C" horiz-adv-x="646" d="M656 605l-31 44q-44 -29 -80 -45q-108 97 -198 97q-64 0 -142 -39q-86 -44 -133 -113q-51 -75 -51 -215q0 -351 352 -351q76 0 193 12v-184h61v267q0 53 -35 53q-19 0 -43 -26q-15 -17 -25.5 -27.5t-16.5 -15.5h1q-32 -21 -74 -21q-124 0 -206 93q-82 92 -82 234 q0 113 41 183q39 67 103 67q43 0 84 -27t121 -112q64 48 103 75t55 36z" />
<glyph unicode="D" horiz-adv-x="752" d="M727 308q0 180 -77.5 272t-228.5 92q-78 0 -112 -21l-75 -46q-12 -7 -21 -7l-198 36q-15 -27 -15 -38q0 -14 131 -38q23 -6 31 -90q4 -42 5.5 -72.5t1.5 -49.5v-198q0 -38 -5 -53q-6 -16 -23 -17l-53 -7q-50 -8 -78 -54q-22 -35 -22 -82q0 -40 27 -65l37 25q-5 22 -5 26 q0 41 43 63h-1q31 15 68 15h7q4 0 9 -1l275 -23h-1q5 -1 9 -1h10q100 0 177 95q84 102 84 239zM618 276q0 -225 -131 -225q-41 0 -75.5 3t-65.5 8q-51 9 -53 17l-11 207q-2 39 -3.5 69.5t-3.5 52.5l-3 58q0 84 14 100q23 26 75 26q109 0 183 -89q74 -90 74 -227z" />
<glyph unicode="E" horiz-adv-x="620" d="M600 437l-98 -7q2 23 12 54t28 68v-1q15 28 28.5 53t21.5 37l-51 19q-14 -21 -27 -39t-22 -30q-104 93 -158 93q-28 0 -94 -20q-64 -18 -93 -37v1q-55 -32 -92 -119q-34 -84 -34 -184q0 -163 80 -256q80 -95 222 -95q67 0 191 43v-157l64 35q1 72 2.5 131t3.5 103 q16 205 27 297zM391 70q-97 0 -173 72q-76 73 -76 166q0 10 17 14q15 3 58 3h318l-18 -231q-81 -24 -126 -24zM170 416q-22 0 -22 24q0 37 28 95q33 68 77 68q84 0 187 -179l-267 -8h-3z" />
<glyph unicode="F" horiz-adv-x="484" d="M473 637q-77 29 -127 29q-65 0 -143 -51q-52 52 -85 52q-8 0 -12 -2l-114 -50l26 -43q30 11 44 11q20 0 33.5 -37.5t13.5 -99.5v-45h-92l13 -65h78l-8 -293v3q-9 -28 -77 -28v-50q23 0 50 1.5t58 5.5q61 6 88 6q48 0 91 -1t78 -3q9 12 9 38q-37 15 -171 23q-2 64 -2 137 v155l159 5v-92h54v119q0 20 10.5 85.5t32.5 178.5zM224 539q0 39 68 39q63 0 113 -40l-18 -123l-163 -7v131z" />
<glyph unicode="G" horiz-adv-x="680" d="M667 190q0 56 -37 115q-9 13 -14 21.5t-8.5 13.5t-6 9t-6.5 10q3 9 42 35q-13 11 -17 14q-6 4 -11 7t-13 6q-28 -18 -51.5 -33t-50.5 -29h1q-61 -26 -110.5 -46t-77.5 -30l25 -50l146 53q21 0 56 -50t35 -92q0 -76 -109 -76q-113 0 -185 33q-52 24 -91 101 q-39 78 -39 160q0 103 45 172q43 67 107 67q65 0 105 -40q82 -81 91 -81q2 0 14.5 6t34.5 19q29 16 59 30t62 25q-14 18 -23 29t-16 16q-17 -7 -33 -13t-28 -11q-81 58 -124 80h1q-31 17 -63 17q-40 0 -103 -17q-31 -8 -56 -17.5t-45 -21.5q-68 -38 -105.5 -116.5 t-37.5 -180.5q0 -160 80 -257q82 -97 218 -97q116 0 236 63q61 32 82 65v-1q21 31 21 92z" />
<glyph unicode="H" horiz-adv-x="717" d="M717 53l-21 37q-17 -10 -36 -20.5t-30 -16.5q-5 -2 -8.5 -4.5t-6.5 -4.5q2 11 6.5 26.5t10.5 37.5q21 73 21 172q0 106 -76 176q-75 72 -187 72q-56 0 -138 -49q-2 6 -2 12v138q0 19 3 42v-1q2 11 3 17.5t1 8.5q0 36 -42 36h-26t-35 -1q-8 0 -15.5 -0.5t-15.5 -0.5h2 l-119 19l-10 -46l102 -24q15 -3 22 -32v1q12 -47 12 -165v-431q0 -15 -14 -16l-86 -13v-45q96 12 151 12q29 0 93 -3.5t155 -8.5v45l-181 18v299q0 55 35 91.5t94 36.5q90 0 126 -82q14 -32 21 -80t7 -113t-29 -192q0 -20 13.5 -33.5t31.5 -13.5q34 0 165 86z" />
<glyph unicode="I" horiz-adv-x="467" d="M465 -13v30l-103 14v562l86 18l-14 50l-71 -10l5 48h-55l-4 -53q-11 -3 -25 -4t-31 -1q-82 0 -155 9q-11 1 -21 2t-21 3t-26 3t-26 3l-4 -54l172 -15q8 -1 14 -20t6 -45v-403q0 -42 -5.5 -70.5t-14.5 -29.5l-126 -13l-5 -48q81 11 140 16t99 6h17q30 0 69 -2t88 -6z M304 589h5v-556h-5v556z" />
<glyph unicode="J" horiz-adv-x="336" d="M286 635l-27 27q-61 -49 -143 -49q-31 0 -91 45q-30 0 -30 -30q0 -11 7 -22t19 -20t27.5 -15t32.5 -7h-1q65 -11 72 -20q13 -19 13 -126v-431q0 -190 -36 -190q-13 0 -41 25q-34 31 -41 31q-6 0 -12.5 -5.5t-12 -14t-9 -18t-3.5 -18.5q0 -35 22 -58.5t54 -23.5 q76 0 135 91q58 90 58 200v449q0 29 1 57t3 55q4 51 6 59z" />
<glyph unicode="K" horiz-adv-x="616" d="M612 -10v50q-70 5 -86 31l-199 305l154 128q11 10 28.5 18.5t40.5 17.5q38 14 38 38q0 17 -12.5 30t-27.5 13q-10 0 -19 -7l-320 -270v186q0 55 10 56l80 9v49q-5 0 -21 -1t-38 -3q-44 -3 -80 -3q-29 0 -69.5 3t-92.5 10v-49l74 -13q24 -5 24 -115v-361q0 -67 -10 -78 q-8 -10 -55 -10q-8 0 -17.5 1t-17.5 3v-54q35 0 71 3q27 2 61 4.5t79 2.5q29 0 56 1t54 4v49h-85q-10 0 -16.5 16.5t-6.5 39.5v180l35 35l181 -277q27 -42 56 -42h131z" />
<glyph unicode="L" horiz-adv-x="556" d="M550 -145v261q-49 0 -113 -37q-61 -35 -133 -35h-74v542h119v54h-187q-20 0 -57.5 5t-93.5 14l-18 -55l107 -16q12 -2 12 -62v-389q0 -70 -5 -93q-3 -12 -13 -12h-85v-54q22 0 57 1.5t73 3.5q17 1 30.5 1.5t23.5 1.5q12 1 18.5 1.5t8.5 0.5h273v-133h57z" />
<glyph unicode="M" horiz-adv-x="919" d="M902 -24v48l-113 25v512q0 38 8 50q12 19 64 20v55l-181 -29h-92v-52h56q5 0 9 -2.5t4 -4.5q0 -20 -56 -140q-131 -283 -133 -292q0 2 -4 12.5t-12 32.5l-78 204q-26 54 -49.5 102t-46.5 90l55 22l-13 49q-4 0 -22.5 -5.5t-50.5 -17.5q-23 -8 -43 -12t-37 -4h-133v-53h97 q25 0 25 -40q0 -26 -9 -88.5t-26 -162.5l-37 -210q-6 -34 -26 -49q-16 -12 -63 -16v-40l10 10q45 0 66.5 -1t25.5 -2.5t-7 -3.5t-32 -5q34 3 57 3q38 0 73.5 -1t59.5 -3v55h-98q-10 0 -10 13q0 2 0.5 4t0.5 4l67 433q55 -92 90 -176q22 -54 41 -111t36 -119v1l3 -13 q4 -14 7.5 -27.5t6.5 -27.5q11 -25 36 -25q23 0 33 28q5 13 8.5 22t6.5 17q7 21 9 24l142 299q40 84 43 84q2 0 2 -105v-274q0 -39 -28 -39h-42v-56q2 0 21 0.5t45 2.5t42 3t23 1q22 0 48 -2t55 -6h-1zM46 -24q-6 -1 -10.5 -1.5t-9.5 -1.5q9 2 17 2.5t15 2.5q-3 -1 -6 -1 t-6 -1z" />
<glyph unicode="N" horiz-adv-x="804" d="M799 598v50l-251 -8v-47l91 -8q11 -2 11 -88v-273q0 -42 -4 -42q-5 0 -48 40l-354 329q-31 30 -40 50q-6 18 -6 71h-22q-25 0 -68 -3q-25 -1 -58 -9q-40 -7 -50 -22l8 -40q20 5 40 7.5t42 2.5q15 0 17 -2q6 -5 11 -30l25 -115v-237q0 -35 -9 -102q-11 -72 -18 -78 q-21 -15 -70 -15q-4 -8 -4.5 -12t-0.5 -9v-11q0 -7 2 -19q114 12 173 12q22 0 56 -2t72 -5l5 47q-36 7 -67 10.5t-57 3.5q-27 0 -27 47v335l452 -398v-49h56l10 518q2 83 13 86z" />
<glyph unicode="O" horiz-adv-x="735" d="M710 324q0 180 -88 272.5t-256 92.5q-84 0 -147.5 -24.5t-106.5 -71.5t-65 -115t-22 -154q0 -84 23 -149t66 -110t104.5 -68.5t139.5 -23.5q164 0 258 94t94 257zM578 284q0 -240 -157 -240q-116 0 -194 95q-78 99 -78 243q0 113 47.5 176.5t130.5 63.5q113 0 181 -91 q70 -91 70 -247z" />
<glyph unicode="P" horiz-adv-x="666" d="M639 428q0 111 -72 180t-189 69q-73 0 -112 -28l-61 -45q-4 -4 -18 -4q-8 1 -18.5 2.5l-24.5 3.5l-147 24v-49l101 -21q13 -3 25 -60q15 -68 15 -170v-202q0 -72 -17 -89q-16 -16 -107 -16v-47q38 2 78.5 4t72.5 5q24 2 47 3.5t46 1.5q62 0 163 -9q99 -9 135 -9v50 q-64 9 -138 13.5t-160 5.5v95q57 -9 112 -9q115 0 192 87h-1q78 87 78 214zM524 385q0 -68 -32 -132q-35 -65 -79 -65q-45 0 -105 33q-49 26 -51 32q-9 27 -9 55v231q0 18 19 40h-1q24 27 66 27q84 0 137 -62q55 -62 55 -159z" />
<glyph unicode="Q" horiz-adv-x="745" d="M872 -223l-36 31l-53 -64v1q-8 -8 -21 -8q-10 0 -20.5 4.5t-18.5 12t-13.5 18t-5.5 21.5l-6 132q-4 77 -95 137q33 33 55 62t34 55q14 28 20 65t6 83q0 368 -350 368q-159 0 -247 -91q-89 -92 -89 -250q0 -157 88 -259q89 -101 222 -101q17 0 39.5 1.5t50.5 3.5t48 3.5 t32 1.5q16 0 40 -25q22 -23 25 -40l6 -144q1 -52 46 -93q43 -40 99 -40q55 0 100 42q15 13 26.5 28.5t19.5 32.5zM597 290q0 -247 -177 -247q-114 0 -195 104q-81 108 -81 258q0 112 52 174.5t144 62.5q114 0 185 -96q72 -98 72 -256z" />
<glyph unicode="R" horiz-adv-x="754" d="M749 -13v50q-32 4 -60 6h-2h-2q-25 5 -49 44l-127 197q35 21 55 35.5t27 22.5q43 46 43 138q0 90 -58 141t-162 51q-56 0 -99 -21q-23 -12 -77 -49l-229 29l-10 -52l146 -28q9 -1 12 -97q1 -35 1.5 -73.5t0.5 -82.5q0 -57 -1.5 -116t-5.5 -123q-2 -15 -14 -21 q-24 -9 -111 -9v-50q8 0 41 1t81 3t87 3t69 1q43 0 132 -15v59l-114 7q-26 2 -32.5 8.5t-6.5 29.5v217l86 -28l187 -278h192zM499 451q0 -53 -30 -86.5t-80 -33.5q-28 0 -70 21q-37 19 -37 31v134q0 34 22.5 54t64.5 20q60 0 95 -37.5t35 -102.5z" />
<glyph unicode="S" horiz-adv-x="598" d="M571 267q0 36 -7 62.5t-23 45t-42 30.5t-63 20q15 51 32 78q9 16 25.5 38.5t39.5 52.5l-47 33l-54 -72q-2 -2 -3 -2q-10 0 -67 47q-66 52 -101 52q-91 0 -161 -76t-70 -171q0 -160 113 -160q25 0 136 30q111 31 130 31q24 0 41 -25.5t17 -62.5q0 -41 -17 -97 q-17 -50 -32 -64q-17 -14 -67 -14q-76 0 -168 52l-113 65q-7 -30 -13.5 -59.5t-11.5 -46.5h1q-17 -49 -31 -88t-22 -60l46 -27l52 133q10 -5 20 -9.5t20 -9.5q4 -2 7.5 -3.5t7.5 -3.5q22 -10 43 -14.5t41 -4.5q159 0 250 79t91 221zM372 420q0 -8 -10 -12.5t-45 -12.5 l-102 -26q-11 -3 -24 -3q-54 0 -54 76q0 134 66 134q32 0 76 -47q5 -5 10 -10.5t10 -10.5q11 -11 20.5 -21.5t20.5 -21.5q32 -35 32 -45z" />
<glyph unicode="T" horiz-adv-x="732" d="M760 695q0 26 -46 46l-56 -40q18 -21 18 -29q0 -11 -11 -17.5t-27 -6.5h-3l-486 12h-7q-65 0 -102 -36t-37 -96q0 -27 26 -53l34 15q-3 15 -5 26.5t-2 17.5q0 36 159 36q79 0 91 -11q14 -9 14 -62v-343q0 -26 -3.5 -51.5t-9.5 -52.5q-32 -5 -57 -8t-42 -5 q-22 -5 -39.5 -8.5t-24.5 -5.5v-55q135 24 206 24q43 0 108.5 -1t145.5 -3v48l-141 15q-16 1 -16 27v472q154 2 235 43q78 39 78 102z" />
<glyph unicode="U" horiz-adv-x="648" d="M658 39q-58 33 -71 59q-7 14 -10.5 40.5t-3.5 67.5v422l-151 -6v-40q25 -12 26 -15q22 -25 22 -84v-283q0 -134 -143 -134q-42 0 -88 23q-44 23 -58 52q-20 40 -20 141v196q0 15 2.5 51.5t7.5 93.5q-41 -4 -84.5 -5.5t-91.5 -1.5v-40q17 -7 26.5 -12t14.5 -8h-1 q20 -17 20 -40v-333q0 -94 62 -153q61 -58 162 -58q58 0 117 37q19 16 38 31q8 7 17 13.5t18 14.5l73 -71q16 -16 44 -16q30 0 74 42z" />
<glyph unicode="V" horiz-adv-x="588" d="M578 584q0 6 -6.5 12.5t-15.5 11.5t-19.5 8t-17.5 3q-41 0 -41 -33v-9t1 -23q0 -6 0.5 -11t0.5 -10t-0.5 -9t-0.5 -8q-1 -20 -9 -41q-20 -63 -49 -140t-67 -169q-11 -23 -12 -23q-4 0 -32 73l-136 337v-1l-20 60l1 -1q-4 21 -28 21h-5q-2 0 -7 -2l1 1l-62 -12 q-55 -11 -55 -31q0 -13 28 -32q27 -18 39 -47l216 -528q12 -21 25 -21q18 0 36 32q30 55 60.5 121.5t61.5 147.5q2 4 8.5 25t20.5 59q12 35 29.5 83.5t39.5 111.5v-2q15 24 15 46z" />
<glyph unicode="W" horiz-adv-x="960" d="M961 592q0 24 -33 24q-71 0 -71 -24q3 -60 3 -93t-32 -153q-17 -64 -34.5 -117.5t-37.5 -98.5l-185 439q-8 18 -30 18q-18 0 -34 -44l-156 -421l-202 476q-9 18 -30 18h-9l-59 -19h2q-1 0 -2.5 -0.5t-2.5 -0.5q-17 -3 -34 -7t-17 -20q0 -13 31 -39q32 -25 43 -52 l211 -456q26 -53 47 -53q25 0 63 99l125 329l186 -389q13 -28 40 -28q19 0 38 55l84 237q29 94 48.5 162.5t29.5 111.5q18 30 18 46z" />
<glyph unicode="X" horiz-adv-x="536" d="M556 55q0 22 -23 22q-2 0 -5 -0.5t-6 -0.5q-5 -1 -9 -1h-7q-31 0 -49 30l-118 195q-28 48 -28 53q0 10 42 75l75 116q13 20 39 28q32 10 32 34q0 33 -51 33q-28 0 -39 -17l-134 -201l-83 164q-15 30 -41 50.5t-51 20.5q-9 0 -42 -21q-43 -26 -52 -30v-33q22 -6 33.5 -9 t16.5 -5q20 -9 31 -27l70 -126q56 -103 56 -124q0 -14 -30 -62q-29 -48 -49.5 -78.5t-34.5 -45.5q-29 -33 -60 -41h1q-54 -9 -54 -22q0 -23 23 -42q21 -18 42 -18q31 0 54 23q22 22 61 88l81 137q18 -37 38.5 -72t43.5 -67q73 -107 127 -107q27 0 63 31q37 33 37 50z" />
<glyph unicode="Y" horiz-adv-x="490" d="M501 623q0 9 -15 18.5t-38 9.5q-13 0 -20.5 -1t-11.5 -5t-6.5 -12.5t-5.5 -24.5q-1 -5 -1.5 -10t-0.5 -11v1q-1 -5 -1 -11v-10q-5 -33 -25 -78q-11 -24 -24 -49.5t-28 -51.5q-27 -49 -29 -49q-9 0 -164 308q-10 10 -21 10q-5 0 -9 -2h1l-87 -32q-21 -6 -21 -29 q0 -18 36 -24l185 -321l-7 -141q-4 -79 -48 -86q-23 -5 -42.5 -10t-28.5 -7v-48q23 0 97 15q37 7 80.5 10.5t94.5 3.5h86v50l-104 4q-15 3 -15 82v141l125 243q48 93 48 117z" />
<glyph unicode="Z" horiz-adv-x="626" d="M631 7q0 68 -79 85q-29 6 -139 6q-60 0 -130 -2t-153 -5l423 488q12 14 18.5 23t6.5 15q0 30 -21 30l-510 -2q-41 -9 -45 -44l-8 -64q0 -27 24 -27q7 0 11.5 3.5t9.5 8.5q5 4 9.5 7.5t8.5 5.5q19 8 50 8h335l-438 -505q-18 -21 -18 -31q0 -23 24 -23q3 0 8.5 0.5 t12.5 1.5t18.5 2t13.5 1h370q60 0 83 -4l4 -1t9 -3v1l15 -5t21 -6q1 -9 1.5 -18t0.5 -18q0 -39 -12 -87h56q11 57 15.5 96.5t4.5 62.5z" />
<glyph unicode="[" horiz-adv-x="275" d="M268 -159v41q-18 -4 -39 -5t-46 -1q-6 0 -6 20v852q0 20 6 20q25 0 46 -1t39 -5v49q-78 15 -122 23t-56 8q-33 0 -33 -133v-774q0 -133 33 -133q14 0 56 7.5t114 21.5z" />
<glyph unicode="\" horiz-adv-x="200" d="M137 387v158q0 64 1 69q6 36 32 36q29 0 91 -81q51 57 51 91q0 18 -33 39h1q-32 21 -56 21q-51 0 -96 -25t-65 -64q-29 -57 -33 -239q-4 -2 -7 -4t-5 -4q-13 -9 -18 -14q-5 -10 -8 -18.5t-6 -22.5h49v-391q0 -23 21 -23q8 0 30 29q7 8 12 14.5t10 12.5q6 7 11.5 13.5 t8.5 10.5l5 347z" />
<glyph unicode="]" horiz-adv-x="275" d="M234 -65v774q0 133 -33 133q-12 0 -56 -8t-122 -23v-49q18 4 39 5t46 1q6 0 6 -20v-852q0 -20 -6 -20q-25 0 -46 1t-39 5v-49q78 -15 122 -23t56 -8q33 0 33 133z" />
<glyph unicode="^" horiz-adv-x="426" d="M405 250q0 10 -15 19q-6 3 -9 5.5t-5 4.5q-44 89 -70.5 143.5t-37.5 74.5q-32 60 -52 60q-25 0 -74 -73q-16 -23 -27 -41t-16 -29v1q-2 -5 -9 -20.5t-19 -43.5q-13 -36 -22 -62t-14 -42q-3 -10 -5 -15.5l-2 -5.5v-4q0 -17 21 -21q15 -3 28 -3q29 0 32 20v8q1 11 1 20v17 v11q7 50 59 135h-1q19 30 23 30q10 0 20 -31l49 -114q7 -17 16 -32.5t20 -28.5q25 -34 47 -34q16 0 37 18q25 20 25 33z" />
<glyph unicode="_" horiz-adv-x="362" d="M371 -84q0 14 -11.5 25t-24.5 11h-300q-45 0 -45 -36t35 -36h298q23 0 36 5q12 6 12 31z" />
<glyph unicode="`" d="M215 506l-66 113h-88q-16 0 -16 -14q0 -8 11 -20l100 -107h47q16 0 16 14q0 6 -4 13v1z" />
<glyph unicode="a" d="M390 31q-46 20 -60.5 37t-14.5 31v210q0 34 -50 75h1q-48 42 -89 42q-24 0 -84 -42q-64 -46 -64 -75q0 -17 15 -31t28 -14q11 0 37 13q32 17 32 31q0 13 -16 29q14 7 24 7q54 0 59 -104l-133 -81q-23 -14 -38.5 -43t-15.5 -58q0 -38 23.5 -63.5t58.5 -25.5q37 0 52 10 q25 18 41 29t24 16q7 -3 34 -27q3 -3 10.5 -5.5t20.5 -7.5q25 -9 34 -9q20 0 33 11zM208 78q0 -7 -19 -21l1 1q-23 -13 -35 -13q-30 0 -30 33q0 31 17 52q34 45 62 45q3 0 3.5 -1t0.5 -6v-90z" />
<glyph unicode="b" horiz-adv-x="416" d="M397 208q0 115 -36 167.5t-114 52.5q-22 0 -41 -12v1l-79 -46v314q0 51 -25 51h-3q-1 0 -6 -2l1 1q-129 -24 -129 -45q0 -11 43 -54q13 -13 13 -66v-405q0 -184 174 -184q38 0 86 26q49 26 81 61q35 38 35 140zM297 173q0 -56 -24 -98q-23 -39 -47 -39q-32 0 -68 42v-1 q-31 37 -31 52v157q0 14 22 33q25 25 57 25q38 0 63 -46q28 -51 28 -125z" />
<glyph unicode="c" horiz-adv-x="341" d="M351 94l-30 30q-58 -70 -86 -70q-25 0 -45.5 11.5t-35.5 32.5t-23.5 49.5t-8.5 62.5q0 87 8 117q11 38 45 38q24 0 56 -40q2 -2 3 -4t3 -4q16 -20 26.5 -29.5l10.5 -9.5q11 0 35 25q25 25 25 41q0 32 -45 61q-44 27 -91 27q-42 0 -76 -18t-58 -52t-36.5 -81.5 t-12.5 -107.5q0 -96 44 -147t125 -51q47 0 86 25q26 19 81 80v14z" />
<glyph unicode="d" horiz-adv-x="433" d="M452 76l-13 32l-56 -26l-3 96v507q0 45 -29 45h-6q-131 -15 -131 -35q0 -14 44 -58q19 -19 19 -89v-125q-29 3 -72 3q-191 0 -191 -226q0 -107 41 -166t113 -59q18 0 42 15l72 44q4 -57 35 -57l78 43q58 34 58 52zM279 138q0 -41 -11 -46l-62 -34q-6 -3 -9 -3 q-30 0 -54 55q-25 61 -25 135q0 120 48 120q53 0 87 -31q26 -23 26 -40v-156z" />
<glyph unicode="e" horiz-adv-x="339" d="M362 351l-30 38l-37 -23q-42 57 -85 57q-44 0 -79 -19q-14 -8 -57 -43q-29 -24 -44 -77q-13 -45 -13 -102q0 -100 42.5 -154t119.5 -54q28 0 57 18l113 75l-27 46l-85 -55q-5 -4 -15 -4q-32 0 -64 35q-33 37 -33 87v12t2 12l143 86zM210 322q0 -6 -12 -13v1l-70 -40 q2 19 5.5 35.5t8.5 32.5q6 21 29 21q6 0 23 -17q16 -16 16 -20z" />
<glyph unicode="f" horiz-adv-x="200" d="M312 660q0 18 -33 39h1q-32 21 -56 21q-51 0 -96 -25t-65 -64q-29 -57 -33 -239q-4 -2 -7 -4t-5 -4q-13 -9 -18 -14q-5 -10 -8 -18.5t-6 -22.5h49v-391q0 -23 21 -23q8 0 30 29q7 8 12 14.5t10 12.5q6 7 11.5 13.5t8.5 10.5l5 338h60l20 65h-76v147q0 64 1 69q6 36 32 36 q29 0 91 -81q51 57 51 91z" />
<glyph unicode="g" horiz-adv-x="417" d="M443 -139q0 63 -35 104q-35 42 -86 42h-4l-176 -4h-2q-11 0 -11 18q0 11 17 25q11 8 34.5 22t62.5 34q102 55 102 196v24h79l13 75l-121 2q-7 8 -18.5 14.5t-25.5 12.5q-38 16 -77 16q-76 0 -126 -59q-49 -58 -49 -143q0 -58 19.5 -92.5t66.5 -59.5q-14 -12 -26 -26 t-23 -28q-28 -39 -28 -55q0 -34 43 -62q-81 -84 -81 -140t57 -95q55 -39 135 -39q108 0 183 63q77 64 77 155zM343 -168q0 -54 -39 -91q-37 -37 -93 -37q-65 0 -100.5 31.5t-35.5 76.5q0 44 60 91q31 7 53.5 10.5t39.5 3.5q69 0 93 -18q22 -17 22 -67zM251 222 q0 -72 -54 -72q-35 0 -57 39.5t-22 102.5q0 41 13.5 66t36.5 25q29 0 55 -47q28 -53 28 -114z" />
<glyph unicode="h" horiz-adv-x="453" d="M468 79l-20 31q-14 -11 -27.5 -20.5t-27.5 -18.5q3 49 3 178q0 75 -34 115q-29 32 -113 62q-17 -6 -37 -17t-45 -27q-18 -12 -26 -16v309q0 26 -4 36t-18 10h-4q-1 0 -6 -2l2 1q-139 -19 -139 -40q0 -11 43 -54q22 -22 22 -66v-606l104 57v294l60 38q92 -1 94 -131 l1 -170q0 -63 24 -63q18 0 79 35q23 17 40 30.5t27 21.5z" />
<glyph unicode="i" horiz-adv-x="190" d="M208 76q-15 33 -31 33l-31 -22v297q0 47 -21 47q-2 0 -5 -1l-6 -2l1 1q-129 -30 -129 -50q0 -11 43 -54q13 -13 13 -66v-248q0 -22 3 -26t22 -4t49 22zM198 597q0 22 -27 22h-47q-14 0 -21 -13.5t-12 -30.5l1 1q-1 -2 -1 -4q0 -1 -1 -3q-12 -28 -17.5 -45t-5.5 -23 q0 -23 32 -23q8 0 26 20l47 52q26 29 26 47z" />
<glyph unicode="j" horiz-adv-x="186" d="M156 -25v401q0 54 -27 54q-6 0 -10 -2l2 1q-130 -30 -130 -50q0 -10 44 -54q13 -13 13 -66v-412q0 -55 -8 -92t-22 -37q-30 0 -79 60q-31 -53 -31 -75q0 -20 27 -36q24 -15 49 -15q59 0 100 44q72 78 72 279zM218 597q0 22 -27 22h-44q-13 0 -21 -15.5t-16 -33.5v-1 q-12 -28 -17.5 -45t-5.5 -23q0 -23 32 -23q8 0 26 20l47 52q26 29 26 47z" />
<glyph unicode="k" horiz-adv-x="435" d="M452 62l-31 40l-47 -41h1q-1 -1 -2 -1v0q-3 0 -7 3q-4 0 -14 10q-14 14 -24 37q-13 33 -23.5 58.5t-19.5 44.5q-7 13 -20 28q-3 3 -4.5 5t-3.5 3q30 31 54.5 52.5t44.5 35.5q4 2 10.5 5.5t16.5 8.5q11 5 17 8.5t6 9.5q0 7 -5 16t-12 16.5t-14.5 13t-13.5 5.5 q-2 0 -4.5 -0.5t-5.5 -3.5l-184 -180l1 1q-7 -5 -12.5 -10.5t-11.5 -10.5v459q0 46 -21 46h-4t-7 -2l2 1q-130 -13 -130 -35q0 -11 43 -54q13 -13 13 -66v-568q0 -11 0.5 -17.5t2.5 -9.5t7.5 -3.5t14.5 -0.5q20 0 79 44v154q26 18 35 23q28 -37 47 -83q6 -16 13 -31l14 -30 q2 -5 4 -9.5t4 -9.5q22 -46 77 -46q16 0 34 15v-1z" />
<glyph unicode="l" horiz-adv-x="190" d="M209 76q-15 33 -31 33l-31 -22v608q0 47 -21 47q-2 0 -5 -1l-6 -2l1 1q-129 -30 -129 -50q0 -11 43 -54q13 -13 13 -66v-559q0 -22 3 -26t22 -4t49 22z" />
<glyph unicode="m" horiz-adv-x="611" d="M628 69l-13 32q-12 -8 -25.5 -15.5t-23.5 -13.5q4 8 4 31v25t1 31q1 19 1.5 37t2.5 38q1 11 1.5 19t0.5 13v6q0 89 -73 138q-14 9 -24 9q-8 0 -11 -3l-123 -55l-81 64l-136 -69q-32 36 -70 50q-50 -23 -77 -63q57 -54 57 -100v-287l100 46v294l41 24q19 11 33 11 q9 0 17 -9t14 -24t9.5 -35t3.5 -43v-11l-10 -254l104 47l7 301l35 22q7 6 24 6q26 0 41.5 -34t15.5 -96q0 -6 -0.5 -12t-0.5 -11l-10 -175v-3q0 -31 32 -31q9 0 71 42q63 43 63 54z" />
<glyph unicode="n" horiz-adv-x="438" d="M460 89l-20 31q-20 -14 -36.5 -26t-30.5 -22q5 57 8.5 101t3.5 76q0 77 -28 113q-27 36 -110 64q-35 -15 -84 -49q-26 -19 -34 -22q-26 27 -62 53l-85 -49q43 -44 54 -73q9 -24 9 -74v-259l98 58v293l58 39q35 -1 61 -51q23 -46 23 -103v-12t-1 -13l-9 -121v1 q-2 -8 -3 -14t-2 -11q-3 -14 -3 -17q0 -7 11 -15t21 -8q18 0 79 35q28 20 47.5 36t33.5 27z" />
<glyph unicode="o" horiz-adv-x="388" d="M372 235q0 203 -143 203q-91 0 -152 -73v1q-60 -69 -60 -174q0 -92 43 -155q44 -62 115 -62q37 0 85 29q66 40 89 93q23 47 23 138zM277 155q0 -106 -40 -106q-28 0 -50.5 13.5t-39 38t-25.5 59t-9 75.5q0 130 52 130q46 0 78 -59q34 -63 34 -151z" />
<glyph unicode="p" horiz-adv-x="459" d="M446 212q0 99 -39 156.5t-106 57.5q-41 0 -74 -22l-54 -37v60q-60 -21 -96 -25q-26 -3 -83 -3v-34q44 -24 56 -44q6 -10 11 -39q1 -4 1 -11q0 -3 0.5 -6.5t0.5 -6.5v-311q0 -61 -3 -128.5t-8 -142.5q-2 -1 -3.5 -2t-3.5 -2q-7 -3 -15.5 -7t-11.5 -6l15 -40l100 23h-1 l151 10v47l-109 -3h-2q-14 0 -14 30l6 124v-1l8 137q10 -1 22.5 -1.5t28.5 -0.5q118 0 170.5 53t52.5 175zM340 155q0 -112 -54 -112q-14 0 -33.5 6.5t-48.5 19.5q-20 8 -26 18q-10 14 -10 49v114q0 47 23 72q19 21 51 21q41 0 68 -53q30 -56 30 -135z" />
<glyph unicode="q" horiz-adv-x="416" d="M452 -299l-18 39l-55 -20v676l-18 11l-51 -23q-72 36 -95 36q-81 0 -139 -75q-56 -73 -56 -174q0 -89 38 -142.5t101 -53.5q13 0 33 10l91 40v-333q0 -50 31 -50q6 0 10 2zM287 183q0 -86 -14 -104q-5 -8 -23 -16t-35 -8q-48 0 -75.5 42t-27.5 112q0 69 21 110.5t55 41.5 q24 0 52 -20.5t43 -49.5q4 -16 4 -19v-89zM322 -356h2h-2z" />
<glyph unicode="r" horiz-adv-x="282" d="M312 374q0 16 -28 35q-32 20 -36 20q-15 0 -39 -19l-54 -44q-9 55 -35 55q-16 0 -65 -13q-32 -10 -47.5 -18t-15.5 -17q0 -4 0.5 -5t3.5 -4q40 -40 48 -55q9 -15 9 -48v-229q0 -30 -20 -50q8 -8 11 -10t5 -4t7 -5t7 -5l84 63l12 281q49 41 50 41q6 0 58 -49q45 48 45 80z " />
<glyph unicode="s" horiz-adv-x="332" d="M314 146q0 87 -82 113q-74 18 -105 24q-6 2 -10.5 12t-4.5 19q0 20 15 35t33 15q17 0 27 -17v2q4 -13 8 -19q2 -5 5.5 -12t5.5 -12q30 0 53.5 15.5t23.5 35.5q0 28 -21.5 46t-53.5 18l-57 -6q-133 -13 -133 -136q0 -80 63 -92l83 -17q56 -12 56 -70q0 -23 -14 -39.5 t-32 -16.5q-9 0 -29 10q-10 6 -17.5 12.5t-12.5 15.5v-1q-2 3 -2.5 6.5t-2.5 6.5q-2 5 -4 8t-4 6.5t-3.5 9t-3.5 16.5q-21 0 -49 -19q-13 -9 -18 -14q-8 -9 -8 -36q0 -37 36 -64q37 -25 81 -25q68 0 123 52q54 52 54 118z" />
<glyph unicode="t" horiz-adv-x="296" d="M309 35l-16 26q-26 -9 -44.5 -14t-30.5 -5q-34 0 -54 34.5t-20 96.5q0 34 1.5 74t6.5 85h127l19 48q2 4 2 9q0 17 -20 17h-126v21q0 52 -14 52q-22 0 -74 -49l1 1q-36 -26 -55.5 -40t-27.5 -22q67 -41 68 -72l-12 -182v-11q0 -53 38 -91q39 -40 96 -40q33 0 81 21 q20 9 33.5 16t19.5 12z" />
<glyph unicode="u" horiz-adv-x="406" d="M424 34q-23 18 -36 29t-16 17v-1q-7 16 -7 55v13q6 241 6 246q0 21 -16 24v-1q-4 2 -20 2l-51 -6q-33 -5 -49.5 -11.5t-16.5 -18.5t15 -27l38 -39q2 -26 3 -42.5t1 -23.5v-26q0 -76 -20.5 -121t-55.5 -45q-73 0 -73 149v25q1 8 1 15q0 8 1 15q9 117 9 133q0 17 -4.5 20 t-24.5 3l-86 -16q-34 -6 -34 -25q0 -12 13 -25l27 -27v-211q0 -54 41 -97q43 -41 96 -41q33 0 108 58q20 -25 45 -38l7 -3q7 -3 12.5 -5.5t12.5 -4.5z" />
<glyph unicode="v" horiz-adv-x="386" d="M384 392q0 20 -25 20q-59 0 -59 -27q0 -10 6 -41q6 -32 6 -48q0 -31 -18 -83t-37.5 -86t-26.5 -34q-6 0 -15.5 17t-15.5 36l-61 191q-5 16 -14.5 30.5t-21.5 25t-25 17t-23 6.5q-16 0 -38 -18q-24 -20 -24 -33q0 -6 5 -10.5t12 -9.5q4 -3 7.5 -5t4.5 -4q18 -19 24 -38h-1 l44 -140q17 -56 55 -123q33 -59 52 -59q24 0 74 72q66 100 88 206l24 115l-1 -1q4 11 4 24z" />
<glyph unicode="w" horiz-adv-x="622" d="M623 377q0 20 -25 20q-59 0 -59 -27q0 -8 7 -25q4 -10 7 -21.5t3 -22.5q0 -45 -21 -106q-16 -48 -31.5 -79t-22.5 -31q-16 0 -32 39l-89 225q-9 23 -29 38.5t-34 15.5t-36 -19q-20 -20 -20 -33q0 -5 4.5 -9.5t9.5 -8.5q2 -3 5.5 -5.5t5.5 -4.5q8 -14 18 -33t22 -44 q-16 -38 -30.5 -69.5t-27.5 -58.5q-18 -37 -24 -37q-12 0 -28 48l-66 182q-6 16 -16 31.5t-21 27.5t-22.5 19t-21.5 7q-16 0 -37 -18q-24 -20 -24 -33q0 -6 5 -10.5t12 -9.5q4 -3 7.5 -6l3.5 -3q8 -8 13.5 -18t10.5 -21l78 -206q6 -14 14.5 -29t20.5 -31q26 -35 42 -35 q38 0 85 95v-1q8 14 14.5 27t13.5 25t12.5 23.5t11.5 22.5l33 -83q10 -24 21 -45t23 -41q17 -26 46 -26q14 0 36 29q21 29 39.5 60t33 61.5t24.5 59t15 51.5q20 94 20 143z" />
<glyph unicode="x" horiz-adv-x="413" d="M427 86l-28 24l-21 -21q-3 -3 -6 -5.5t-5 -4.5q-6 -6 -14 -12q-5 -5 -4 -5q-10 2 -24 26l-78 126l28 63q22 51 27 51q2 0 41 -27q48 42 52 66q0 15 -15.5 32t-40.5 17q-30 0 -59 -38q-25 -31 -65 -106l-42 68q-5 10 -15.5 20t-24.5 22q-28 23 -45 23q-13 0 -38 -20 q-21 -18 -21 -37q0 -9 38 -31q10 -10 16 -17t9 -11h-1l80 -130q-54 -94 -64 -94q-8 0 -17.5 2.5t-20.5 7.5q-25 13 -30 13q-12 0 -28 -25q-13 -20 -13 -34q0 -15 27 -36q24 -20 53 -20q39 0 65 39l56 88l47 -76q25 -41 81 -41q10 0 25 10l51 47q27 24 27 38z" />
<glyph unicode="y" horiz-adv-x="389" d="M381 392q0 10 -13.5 20t-31.5 10q-41 0 -41 -22q0 1 1 -2.5t2 -6.5q3 -8 6 -19.5t3 -19.5q0 -2 -2 -10v-2q-16 -76 -30 -121h1q-10 -26 -18 -47t-14 -37q-6 15 -15 38.5t-21 56.5q-17 43 -26.5 68t-13.5 31q-54 92 -112 95q-22 -2 -45 -19q-24 -20 -24 -42q7 -5 12.5 -8 t12 -7t15.5 -10t24 -15q17 -11 31 -42l64 -147q17 -39 29 -73t19 -63q-10 -25 -16.5 -42.5t-11.5 -28.5q-111 -222 -111 -234q0 -15 36 -40t46 -25q18 0 71 68l-62 44q-2 2 -2 11q0 6 27 63q2 5 6 13q16 34 27 57t16 35q45 107 79.5 204t60.5 185q21 73 21 84z" />
<glyph unicode="z" horiz-adv-x="402" d="M414 3q0 39 -37 52q-38 16 -149 16h-104l111 140q60 72 98 115t55 57l-37 39q-42 -57 -65 -57q-14 0 -96 22q-48 11 -85 19t-57 12l-62 -97l39 -15l26 20l177 -41l-220 -276v-30q54 3 99.5 5t74.5 2q46 0 89.5 -4t87.5 -12v-39h36q19 35 19 72z" />
<glyph unicode="{" horiz-adv-x="279" d="M251 -217q-36 13 -50 34.5t-14 65.5v302q0 92 -61 119q61 29 61 119v293q0 86 67 106l-3 19h-20q-61 0 -94 -21q-50 -32 -50 -112v-305q0 -42 -15.5 -62t-56.5 -28l-1 -18q73 -22 73 -90v-323q0 -60 41 -91q36 -28 96 -28h12q7 0 13 1z" />
<glyph unicode="|" horiz-adv-x="270" d="M195 -10v820h-120v-820h120z" />
<glyph unicode="}" horiz-adv-x="279" d="M252 314q-38 8 -52.5 27.5t-14.5 61.5v305q0 81 -50 112q-33 21 -94 21h-20l-3 -19q67 -20 67 -106v-293q0 -91 61 -119q-61 -27 -61 -119v-302q0 -45 -15 -66.5t-53 -35.5l2 -16q12 -2 18 -2h11q60 0 96 28q41 31 41 91v323q0 66 68 89z" />
<glyph unicode="~" horiz-adv-x="478" d="M445 265q-11 0 -34 -13q-22 -11 -32 -11q-24 0 -70 15v-1q-44 17 -109 17q-58 0 -130 -49q-56 -37 -56 -70q0 -23 14 -23v20q14 0 23.5 -0.5t7.5 -2.5q29 16 74 16q15 0 67 -13q54 -12 90 -12q44 0 87 26l55 37h-1q29 18 29 44q0 20 -15 20z" />
<glyph unicode="&#xa1;" horiz-adv-x="190" d="M58 -54l103 37l-19 594l-88 -36q-4 -151 -6 -298.5t-3 -287.5zM28 658q14 -27 31 -46.5t34 -33.5l75 72q-32 65 -62 82q-33 -10 -77 -63z" />
<glyph unicode="&#xa2;" horiz-adv-x="351" d="M336 66l-29 42q-47 -78 -79 -78q-48 0 -79 42q-33 43 -33 109q0 76 15.5 121.5t40.5 45.5q37 0 96 -98q58 46 58 82q0 25 -37 50q-30 21 -57 27v27h-61v-26q-76 -13 -117 -90q-38 -70 -38 -193q0 -114 84 -156h-1q14 -8 32.5 -12t39.5 -6v-54l61 14v51q34 20 52 34 q21 16 52 56v12z" />
<glyph unicode="&#xa3;" horiz-adv-x="643" d="M618 109q0 52 -37.5 76.5t-121.5 26.5q0 -26 -3 -46.5t-5 -34.5q-3 -15 -3 -26l20 -20q17 0 40 21q16 16 36 16q16 0 16 -19q0 -24 -63 -49q-60 -24 -109 -24q-36 0 -112 28q11 61 11 92q0 17 -2.5 40.5t-7.5 52.5q46 3 60 10h-1q8 3 33 28q8 31 14.5 62.5t10.5 49.5h-36 q-25 -36 -41 -43q-12 -5 -31 -5h-11t-12 1q-3 9 -3 26q0 85 41 149q40 65 87 65t82 -66l33 -15q4 10 11 27t15 33q13 26 13 34t-9.5 16t-24.5 14.5t-34 10.5t-39 4q-116 0 -204 -76q-87 -77 -87 -188v-15q0 -6 1 -13q-20 -10 -36.5 -18.5t-32.5 -19.5q-22 -62 -30 -95 l28 -26q34 54 64 54q1 0 4.5 -1t7.5 -2q6 -25 11 -44t7 -33q2 -33 3.5 -57t2.5 -41q-91 -3 -130.5 -18.5t-39.5 -50.5q0 -26 23.5 -45t58.5 -19q42 0 94 32q51 30 54 30q10 0 77 -31q68 -34 118 -34q80 0 134 51q55 49 55 125zM155 10q-13 -13 -22 -13q-19 0 -19 3q0 7 8 13 t16 6q26 0 29 5q-1 -3 -12 -14z" />
<glyph unicode="&#xa4;" horiz-adv-x="600" d="M583 107l-97 98q40 52 40 129q0 76 -40 128l97 97l-56 58l-98 -98q-50 39 -129 39q-77 0 -129 -40l-96 99l-58 -58l98 -97q-39 -53 -39 -128q0 -77 39 -129l-98 -98l58 -56l96 96q52 -39 129 -39q75 0 128 39l99 -96zM454 334q0 -64 -45 -110t-109 -46q-63 0 -108 46 q-44 47 -44 110q0 60 44 107q47 47 108 47q64 0 109 -46q45 -47 45 -108z" />
<glyph unicode="&#xa5;" horiz-adv-x="399" d="M508 537q-20 35 -34.5 61.5t-19.5 37.5q-14 -6 -29.5 -12.5t-24.5 -11.5l-6 -3q-39 -18 -52 -36q-23 -35 -37.5 -59t-20.5 -36q-17 -29 -29 -49t-20 -33q-2 -3 -3 -5l-2 -4q-38 42 -73 85t-70 89l-30 39q-26 31 -40 31h-3q-9 -5 -20.5 -10t-23.5 -12q-11 -6 -19.5 -10.5 t-15.5 -8.5q-27 -15 -29 -16q-25 -13 -25 -32v-16q11 5 27.5 12t24.5 11l12 6q6 3 7 3q-2 0 0 -2q14 -13 25 -25t19 -24q26 -35 66.5 -85t96.5 -115h-98l-61 -60l31 -15l17 15h111v-33h-98l-61 -60l31 -15l17 15h111v-186q46 16 99 50v136h98l54 58l-26 14l-14 -12h-112v33 h98l53 57l-25 17l-14 -14h-112v49q43 75 71.5 122.5t42.5 67.5q2 2 2.5 3.5t1.5 2.5q14 -22 23.5 -40.5t17.5 -32.5q51 16 88 45zM372 559l3 -6q-2 1 -3 6z" />
<glyph unicode="&#xa6;" horiz-adv-x="138" d="M130 318v359h-118v-359h118zM130 -174v337h-118v-337h118z" />
<glyph unicode="&#xa7;" horiz-adv-x="411" d="M385 207q0 96 -68 169q-14 15 -43.5 38t-76.5 55q-61 41 -61 69q0 23 17.5 37.5t42.5 14.5h1q26 0 43 -23q3 -6 6.5 -12.5t6.5 -11.5t6 -11.5t8 -14.5h-1q15 -31 45 -31q55 0 55 49q0 46 -56 73q-42 21 -89 21q-77 0 -119.5 -41t-42.5 -118q0 -24 17 -52 q-49 -80 -49 -132q0 -99 65 -172q23 -24 116 -93q58 -41 58 -74q0 -23 -20 -40t-44 -17q-41 0 -56 28v-1q-2 6 -4 12.5t-4 12.5v-1l-14 41q-15 34 -56 34q-23 0 -34 -18t-11 -40q0 -56 62 -86q45 -21 104 -21q62 0 113 34q55 39 55 102q0 20 -17 68q45 73 45 152zM335 147 q0 -27 -18 -57q-14 14 -37 33t-54 43q-75 57 -98 81q-42 43 -42 89q0 19 16 54q35 -27 69.5 -54t69.5 -53q94 -77 94 -136z" />
<glyph unicode="&#xa8;" d="M228 597q0 22 -27 22h-47q-14 0 -21 -13.5t-12 -30.5l1 1q-1 -2 -1 -4q0 -1 -1 -3q-12 -28 -17.5 -45t-5.5 -23q0 -23 32 -23q8 0 26 20l47 52q26 29 26 47zM333 597q0 22 -27 22h-47q-14 0 -21 -13.5t-12 -30.5l1 1q-1 -2 -1 -4q0 -1 -1 -3q-12 -28 -17.5 -45t-5.5 -23 q0 -23 32 -23q8 0 26 20l47 52q26 29 26 47z" />
<glyph unicode="&#xa9;" horiz-adv-x="735" d="M743 324q0 195 -95.5 298t-281.5 103q-182 0 -279 -108q-95 -104 -95 -293q0 -185 97 -285t268 -100q94 0 165 28v-62h59v90q162 98 162 329zM393 0q-156 0 -242 84t-86 246q0 167 80 256q72 79 192 79q168 0 246 -78q89 -89 89 -298q0 -135 -91 -215v61q0 46 -33 46 q-14 0 -34 -20q-11 -13 -18.5 -20.5t-12.5 -11.5h1q-23 -15 -54 -15q-90 0 -148 67q-59 68 -59 170q0 81 27 130t74 49q31 0 58 -20q17 -12 40 -32.5t53 -52.5q51 36 84.5 59.5t51.5 34.5l-38 51q-20 -13 -34 -21.5t-25 -13.5q-80 71 -149 71q-50 0 -108 -30 q-66 -34 -103 -88q-37 -56 -37 -163q0 -268 268 -268q59 0 137 9v-33q-65 -33 -129 -33z" />
<glyph unicode="&#xab;" horiz-adv-x="351" d="M334 87l-69 170l69 156h-44l-121 -134q-16 -16 -16 -28t16 -28l121 -134zM200 87l-68 170l68 156h-43l-121 -134q-16 -16 -16 -28t16 -28l121 -134z" />
<glyph unicode="&#xac;" horiz-adv-x="448" d="M433 -137q0 18 -19 37q-12 12 -18.5 19.5t-8.5 11.5q-23 42 -39.5 71.5t-26.5 49.5l-267 537q-9 18 -27 18q-33 0 -33 -35q0 -6 2 -10v2v-2l346 -731q13 -8 33 -8q58 0 58 40z" />
<glyph unicode="&#xae;" horiz-adv-x="735" d="M743 324q0 195 -95.5 298t-281.5 103q-182 0 -279 -108q-95 -104 -95 -293q0 -185 97 -285t268 -100q180 0 283 103t103 282zM672 289q0 -102 -55 -175v28q-15 3 -26.5 4.5t-19.5 2.5q-14 3 -33 31l1 -1l-70 137q50 32 58 41q31 36 31 103q0 69 -44 108.5t-123 39.5 q-41 0 -74 -16q-8 -4 -20 -12l-30 -20q-2 -1 -4 -3l-123 22l-10 -49l65 -25q-1 0 2 -62q1 -25 1.5 -53.5t0.5 -60.5q0 -55 -6 -173q-1 -8 -10.5 -12.5t-30.5 -4.5v-51q8 0 28.5 0.5t43.5 2.5q46 3 88 3q16 0 41.5 -3.5t60.5 -9.5v61l-90 3q-14 1 -17.5 4.5t-3.5 16.5v149 l51 -16l117 -204l129 -1q-5 -6 -11 -11.5t-12 -10.5q-81 -72 -184 -72q-156 0 -242 84t-86 246q0 167 80 256q72 79 192 79q168 0 246 -78q89 -89 89 -298zM446 439q0 -35 -19.5 -57.5t-53.5 -22.5q-11 0 -22.5 3.5t-25.5 9.5q-23 11 -23 17v98q0 47 57 47q41 0 64 -25.5 t23 -69.5z" />
<glyph unicode="&#xb0;" horiz-adv-x="272" d="M252 469q0 134 -94 134q-53 0 -93 -45q-40 -46 -40 -103q0 -65 28.5 -100.5t78.5 -35.5q120 0 120 150zM183 426q0 -58 -27 -58q-23 0 -42 31h1q-21 36 -21 68q0 31 12 58q10 24 21 24q26 0 41 -33.5t15 -89.5z" />
<glyph unicode="&#xb1;" horiz-adv-x="1448" d="M1426 -38v838h-1404v-838h1404zM1401 562q0 -29 -22 -50t-51 -21h-146q-35 0 -35 -45v-302q0 -30 19 -42v-56q-72 16 -72 86v322q0 96 115 96q16 0 48 -3q17 -1 29 -1.5t20 -0.5q40 0 40 21q0 19 -41 19q-8 0 -20 -0.5t-28 -1.5t-27.5 -1.5t-19.5 -0.5q-116 0 -116 88 v131h57v-131q0 -35 37 -35h148q27 0 46 -21t19 -51zM1014 136q0 -39 -23.5 -63.5t-62.5 -24.5h-282q-30 0 -50 20t-20 50q0 31 18 52t47 21h279v-53h-270q-20 0 -20 -18q0 -21 22 -21h250q61 0 61 45v76q0 45 -45 45h-250q-42 0 -67 25t-25 67v89q0 45 26.5 73.5t71.5 28.5 h246q76 0 89 -76h-50q-20 21 -43 21h-244q-41 0 -41 -43v-95q0 -37 41 -37h246q45 0 70.5 -23t25.5 -65v-94zM507 800l-1 -684q0 -30 -21.5 -52t-51.5 -22q-32 0 -52 22t-20 55q0 68 -0.5 110t-1.5 59q-2 9 -87 93l-95 93q-14 14 -27 14q-10 0 -17 -6q-8 -26 -8 -32v-310 q0 -43 35 -43h81q13 6 25 21h53q-14 -72 -77 -72h-82q-88 0 -88 96v330q0 31 26 51q23 17 56 17t52 -19l179 -177q31 -31 31 -75v-151q0 -21 19 -21q6 0 12 7.5t6 13.5l-2 682h56z" />
<glyph unicode="&#xb2;" horiz-adv-x="498" d="M312 660q0 18 -33 39h1q-32 21 -56 21q-51 0 -96 -25t-65 -64q-29 -57 -33 -239q-4 -2 -7 -4t-5 -4q-13 -9 -18 -14q-5 -10 -8 -18.5t-6 -22.5h49v-391q0 -23 21 -23q8 0 30 29q7 8 12 14.5t10 12.5q6 7 11.5 13.5t8.5 10.5l5 348v-1l4 45v158q0 64 1 69q6 36 32 36 q29 0 91 -81q51 57 51 91zM479 145q0 87 -82 113q-74 18 -105 24q-6 2 -10.5 12t-4.5 19q0 20 15 35t33 15q17 0 27 -17v2q4 -13 8 -19q2 -5 5.5 -12t5.5 -12q30 0 53.5 15.5t23.5 35.5q0 28 -21.5 46t-53.5 18l-57 -6q-133 -13 -133 -136q0 -80 63 -92l83 -17 q56 -12 56 -70q0 -23 -14 -39.5t-32 -16.5q-9 0 -29 10q-10 6 -17.5 12.5t-12.5 15.5v-1q-2 3 -2.5 6.5t-2.5 6.5q-2 5 -4 8t-4 6.5t-3.5 9t-3.5 16.5q-21 0 -49 -19q-13 -9 -18 -14q-8 -9 -8 -36q0 -37 36 -64q37 -25 81 -25q68 0 123 52q54 52 54 118z" />
<glyph unicode="&#xb3;" horiz-adv-x="200" d="M312 660q0 18 -33 39h1q-32 21 -56 21q-51 0 -96 -25t-65 -64q-29 -57 -33 -239q-4 -2 -7 -4t-5 -4q-13 -9 -18 -14q-5 -10 -8 -18.5t-6 -22.5h49v-391q0 -23 21 -23q8 0 30 29q7 8 12 14.5t10 12.5q6 7 11.5 13.5t8.5 10.5l5 347l4 45v158q0 64 1 69q6 36 32 36 q29 0 91 -81q51 57 51 91z" />
<glyph unicode="&#xb4;" d="M320 605q0 14 -16 14h-88l-66 -114q-4 -7 -4 -13q0 -14 16 -14h47l99 107q12 15 12 20z" />
<glyph unicode="&#xb6;" horiz-adv-x="541" d="M532 613v49h-354q-72 0 -117 -33q-25 -19 -39.5 -46.5t-16.5 -62.5q0 -5 -0.5 -8.5t-0.5 -7.5q0 -74 51 -120q51 -45 139 -45h107v-414h74v688h36v-688h75v688h46zM204 419q-20 25 -22 84v6q0 45 27 74.5t72 29.5h20v-223h-20q-54 0 -77 29z" />
<glyph unicode="&#xb8;" horiz-adv-x="341" d="M213 10h-46l-43 -87h40q12 0 12 -5q0 -20 -51 -20q-1 0 -7 1.5t-18 3.5l-17 -39q30 -9 62 -9q105 0 105 65q0 44 -55 50z" />
<glyph unicode="&#xbb;" horiz-adv-x="351" d="M327 251q0 12 -16 28l-122 134h-43l69 -156l-69 -170l43 2l122 134q16 16 16 28zM195 251q0 9 -17 28l-122 134h-42l68 -156l-68 -170l42 2l122 134q17 19 17 28z" />
<glyph unicode="&#xbc;" horiz-adv-x="739" d="M754 79l-20 31q-14 -11 -27.5 -20.5t-27.5 -18.5q3 49 3 178q0 75 -34 115q-29 32 -113 62q-17 -6 -37 -17t-45 -27q-18 -12 -26 -16v309q0 26 -4 36t-18 10h-4q-1 0 -6 -2l2 1q-140 -20 -140 -40q0 -10 44 -54q22 -22 22 -66v-185q-13 16 -34 30q-44 27 -91 27 q-42 0 -76 -18t-58 -52t-36.5 -81.5t-12.5 -107.5q0 -96 44 -147t125 -51q49 0 82 21q11 8 25 20.5t32 32.5v-95l104 57v294l60 38q92 -1 94 -131l1 -170q0 -63 24 -63q18 0 79 35q23 17 40 30.5t27 21.5zM235 54q-25 0 -45.5 11.5t-35.5 32.5t-23.5 49.5t-8.5 62.5 q0 87 8 117q11 38 45 38q24 0 56 -40q2 -2 3 -4t3 -4q16 -20 26.5 -29.5l10.5 -9.5q11 0 35 25q4 4 7.5 8t6.5 8v-197l-2 2q-58 -70 -86 -70z" />
<glyph unicode="&#xbd;" horiz-adv-x="714" d="M734 61l-31 40l-47 -41h1q-1 -1 -2 -1v0q-3 0 -7 3q-4 0 -14 10q-14 14 -24 37q-13 33 -23.5 58.5t-19.5 44.5q-7 13 -20 28q-3 3 -4.5 5t-3.5 3q30 31 54.5 52.5t44.5 35.5q4 2 10.5 5.5t16.5 8.5q11 5 17 8.5t6 9.5q0 7 -5 16t-12 16.5t-14.5 13t-13.5 5.5 q-2 0 -4.5 -0.5t-5.5 -3.5l-184 -180l1 1q-7 -5 -12.5 -10.5t-11.5 -10.5v459q0 46 -21 46h-4t-7 -2l2 1q-131 -15 -131 -35q0 -10 44 -54q13 -13 13 -66v-188q-13 16 -33 29q-44 27 -91 27q-42 0 -76 -18t-58 -52t-36.5 -81.5t-12.5 -107.5q0 -96 44 -147t125 -51 q49 0 82 21q20 13 56 52v-52q0 -11 0.5 -17.5t2.5 -9.5t7.5 -3.5t14.5 -0.5q20 0 79 44v154q26 18 35 23q28 -37 47 -83q6 -16 13 -31l14 -30q2 -5 4 -9.5t4 -9.5q22 -46 77 -46q16 0 34 15v-1zM235 54q-25 0 -45.5 11.5t-35.5 32.5t-23.5 49.5t-8.5 62.5q0 87 8 117 q11 38 45 38q24 0 56 -40q2 -2 3 -4t3 -4q16 -20 26.5 -29.5l10.5 -9.5q11 0 35 25q4 4 7 7.5t6 6.5v-194l-1 1q-58 -70 -86 -70z" />
<glyph unicode="&#xbe;" horiz-adv-x="905" d="M919 81l-20 31q-14 -11 -27.5 -20.5t-27.5 -18.5q3 49 3 178q0 75 -34 115q-29 32 -113 62q-17 -6 -37 -17t-45 -27q-18 -12 -26 -16v309q0 26 -4 36t-18 10h-4q-1 0 -6 -2l2 1q-140 -20 -140 -40q0 -10 44 -54q22 -22 22 -66v-185q-13 16 -34 30q-44 27 -91 27 q-42 0 -76 -18t-58 -52t-36.5 -81.5t-12.5 -107.5q0 -96 44 -147t125 -51q49 0 82 21q11 8 25 20.5t32 32.5v-95l104 57v294l60 38q92 -1 94 -131l1 -170q0 -63 24 -63q18 0 79 35q23 17 40 30.5t27 21.5zM137 387v158q0 64 1 69q6 36 32 36q29 0 91 -81q51 57 51 91 q0 18 -33 39h1q-32 21 -56 21q-51 0 -96 -25t-65 -64q-29 -57 -33 -239q-4 -2 -7 -4t-5 -4q-13 -9 -18 -14q-5 -10 -8 -18.5t-6 -22.5h49v-391q0 -23 21 -23q8 0 30 29q7 8 12 14.5t10 12.5q6 7 11.5 13.5t8.5 10.5l5 347zM400 56q-25 0 -45.5 11.5t-35.5 32.5t-23.5 49.5 t-8.5 62.5q0 87 8 117q11 38 45 38q24 0 56 -40q2 -2 3 -4t3 -4q16 -20 26.5 -29.5l10.5 -9.5q11 0 35 25q4 4 7.5 8t6.5 8v-197l-2 2q-58 -70 -86 -70z" />
<glyph unicode="&#xbf;" horiz-adv-x="553" d="M18 147q0 -82 50 -141q51 -61 121 -61q91 0 176 65q71 54 123 137q46 74 46 124q0 96 -49 154l-86 -41q9 -24 13 -32q3 -8 6 -13.5t5 -10.5v1q6 -17 9.5 -35t3.5 -38q0 -105 -59 -173q-58 -67 -145 -67q-50 0 -79 35t-29 93q0 94 64 213q67 122 184 207q-38 13 -63 13 q-25 -17 -41.5 -30.5t-24.5 -21.5l-101 -101q-26 -26 -48 -58.5t-40 -73.5q-36 -81 -36 -145zM240 657q14 -27 31 -46.5t34 -33.5l75 72q-32 65 -62 82q-33 -10 -77 -63z" />
<glyph unicode="&#xc0;" horiz-adv-x="696" d="M704 0v34q-22 5 -37.5 8.5t-26.5 4.5q-7 2 -10 19l-41 232q-10 56 -21 111t-23 110q-14 65 -14 88q0 11 1 11l74 15v48q-46 0 -88 -3t-84 -8q-45 -6 -108 -6q-102 0 -288 24v-50q17 -10 36 -16t38 -7l108 -5q3 0 3 -8q0 -11 -12 -41q-10 -23 -14.5 -36.5l-5.5 -16.5v2 q-37 -123 -65.5 -221t-50.5 -173q-7 -22 -10 -34t-4 -14v1q-8 -17 -35 -26v1q-7 -2 -15 -5.5t-11 -5.5v-43q34 0 69 3q34 3 43 3q30 0 49.5 4t31 9t16 9t3.5 4l10 -10v39l-69 2h1q-9 1 -9 27q0 35 26 133q13 50 33 61q22 12 119 18q8 1 25.5 2.5t44.5 5.5q14 2 21.5 3 t13 1.5t9.5 1t11 1.5q15 -1 20 -39l17 -195v-3q0 -11 -6 -12l1 1q-10 -3 -18.5 -6t-15.5 -5t-15.5 -4.5t-13.5 -4.5v-44q42 3 80.5 5t64.5 2q33 0 131 -12zM448 395q0 -9 -13 -11l-175 -8h-8q-32 0 -32 7q0 23 20 81l50 145l103 1l38 -140q17 -63 17 -75zM361 719l-66 113 h-88q-16 0 -16 -14q0 -8 11 -20l100 -107h47q16 0 16 14q0 6 -4 13v1z" />
<glyph unicode="&#xc1;" horiz-adv-x="696" d="M704 0v34q-22 5 -37.5 8.5t-26.5 4.5q-7 2 -10 19l-41 232q-10 56 -21 111t-23 110q-14 65 -14 88q0 11 1 11l74 15v48q-46 0 -88 -3t-84 -8q-45 -6 -108 -6q-102 0 -288 24v-50q17 -10 36 -16t38 -7l108 -5q3 0 3 -8q0 -11 -12 -41q-10 -23 -14.5 -36.5l-5.5 -16.5v2 q-37 -123 -65.5 -221t-50.5 -173q-7 -22 -10 -34t-4 -14v1q-8 -17 -35 -26v1q-7 -2 -15 -5.5t-11 -5.5v-43q34 0 69 3q34 3 43 3q30 0 49.5 4t31 9t16 9t3.5 4l10 -10v39l-69 2q-8 2 -8 27q0 35 26 133q13 50 33 61q22 12 119 18q8 1 25.5 2.5t44.5 5.5q14 2 21.5 3t13 1.5 t9.5 1t11 1.5q15 -1 20 -39l17 -195v-3q0 -11 -6 -12l1 1q-10 -3 -18.5 -6t-15.5 -5t-15.5 -4.5t-13.5 -4.5v-44q42 3 80.5 5t64.5 2q33 0 131 -12zM448 395q0 -9 -13 -11l-175 -8h-8q-32 0 -32 7q0 23 20 81l50 145l103 1l38 -140q17 -63 17 -75zM483 818q0 14 -16 14h-88 l-66 -114q-4 -7 -4 -13q0 -14 16 -14h47l99 107q12 15 12 20z" />
<glyph unicode="&#xc2;" horiz-adv-x="696" d="M202 2v1v-1zM53 653q1 -1 5 -3v-6zM20 20q-3 -2 -5 -2h-1l6 9v-7zM437 25q-6 -2 -7 -2l7 9v-7zM692 16q-4 0 -8 2v8zM586 641v8l8 2zM202 31v10l10 -10h-10zM10 10h10v-10zM586 661v10l10 -10h-10zM426 16q2 0 5 0.5t6 0.5v-11zM684 11q3 -1 11 -1l-11 -10v11zM58 665 q-3 1 -6 1t-5 1l11 10v-12zM367 832q6 -2 8.5 -5t4.5 -6l83 -99v-2q3 -6 5.5 -10.5l2.5 -4.5q0 -14 -15 -14h-80l-30 56l-29 -56h-80q-15 0 -15 14l2 4.5t6 10.5v2l82 99q2 7 14 11h41zM468 395q0 18 -17 81l-42 154l-132 -1l-55 -159q-22 -62 -22 -87q0 -27 52 -27h8l175 8 q33 2 33 31zM684 11q-45 5 -75 8t-47 3q-24 0 -55.5 -1.5t-69.5 -3.5v8q3 2 6.5 2.5t8.5 2.5q7 2 15.5 4t18.5 5q19 7 19 31v5l-17 195q-5 57 -42 57q-7 -1 -11 -1.5t-9.5 -1t-13 -1.5t-21.5 -3q-27 -4 -44.5 -5.5t-25.5 -2.5q-102 -6 -126 -20h1q-29 -15 -45 -73 q-26 -98 -26 -139q0 -46 27 -47l50 -2v-28q-2 2 -20.5 7.5t-69.5 5.5q-11 0 -45 -3q-29 -3 -47 -3v10q2 1 4.5 1.5t7.5 2.5q34 12 46 35q1 2 5.5 15.5t11.5 35.5q22 75 50.5 173t65.5 221q0 4 18 49q14 32 14 49q0 25 -22 28l-109 5q-29 2 -54 15v15q169 -21 268 -21 q65 0 110 6q38 5 75.5 7.5t74.5 3.5v-12l-57 -11h1q-19 -3 -19 -31q0 -27 14 -92q12 -55 23 -110t21 -111l41 -232q6 -33 28 -35q14 -1 46 -9v-7z" />
<glyph unicode="&#xc3;" horiz-adv-x="696" d="M704 0v34q-22 5 -37.5 8.5t-26.5 4.5q-7 2 -10 19l-41 232q-10 56 -21 111t-23 110q-14 65 -14 88q0 11 1 11l74 15v48q-46 0 -88 -3t-84 -8q-45 -6 -108 -6q-102 0 -288 24v-50q17 -10 36 -16t38 -7l108 -5q3 0 3 -8q0 -11 -12 -41q-10 -23 -14.5 -36.5l-5.5 -16.5v2 q-37 -123 -65.5 -221t-50.5 -173q-7 -22 -10 -34t-4 -14v1q-8 -17 -35 -26v1q-7 -2 -15 -5.5t-11 -5.5v-43q34 0 69 3q34 3 43 3q30 0 49.5 4t31 9t16 9t3.5 4l10 -10v39l-69 2q-8 2 -8 27q0 35 26 133q13 50 33 61q22 12 119 18q8 1 25.5 2.5t44.5 5.5q14 2 21.5 3t13 1.5 t9.5 1t11 1.5q15 -1 20 -39l17 -195v-3q0 -11 -6 -12l1 1q-10 -3 -18.5 -6t-15.5 -5t-15.5 -4.5t-13.5 -4.5v-44q42 3 80.5 5t64.5 2q33 0 131 -12zM448 395q0 -9 -13 -11l-175 -8h-8q-32 0 -32 7q0 23 20 81l50 145l103 1l38 -140q17 -63 17 -75zM511 779q-5 0 -15 -6 q-7 -3 -15 -6t-12 -3q-5 0 -13 2t-19 5q-16 5 -36.5 9t-46.5 4q-39 0 -85 -32q-37 -26 -37 -48q0 -8 3.5 -13t8.5 -5v20q-1 0 17 0.5t51 0.5q4 0 41 -8q17 -4 31.5 -6t27.5 -2q30 0 58 17l10 7h-1q17 11 31 22t14 26q0 10 -9 15z" />
<glyph unicode="&#xc4;" horiz-adv-x="696" d="M704 0v34q-22 5 -37.5 8.5t-26.5 4.5q-7 2 -10 19l-41 232q-10 56 -21 111t-23 110q-14 65 -14 88q0 11 1 11l74 15v48q-46 0 -88 -3t-84 -8q-45 -6 -108 -6q-102 0 -288 24v-50q17 -10 36 -16t38 -7l108 -5q3 -2 3 -8q0 -11 -12 -41q-10 -23 -14.5 -36.5l-5.5 -16.5v2 q-37 -123 -65.5 -221t-50.5 -173q-7 -22 -10 -34t-4 -14v1q-8 -17 -35 -26v1q-7 -2 -15 -5.5t-11 -5.5v-43q34 0 69 3q34 3 43 3q30 0 49.5 4t31 9t16 9t3.5 4l10 -10v39l-69 2q-8 2 -8 27q0 35 26 133q13 50 33 61q22 12 119 18q8 1 25.5 2.5t44.5 5.5q14 2 21.5 3t13 1.5 t9.5 1t11 1.5q15 -1 20 -39l17 -195v-3q0 -11 -6 -12l1 1q-10 -3 -18.5 -6t-15.5 -5t-15.5 -4.5t-13.5 -4.5v-44q42 3 80.5 5t64.5 2q33 0 131 -12zM448 395q0 -9 -13 -11l-175 -8h-8q-32 0 -32 7q0 23 20 81l50 145l103 1l38 -140q17 -63 17 -75zM339 760q-26 48 -61 74 l-71 -66q32 -63 59 -77q31 10 72 57zM495 760q-30 53 -60 74l-70 -66q16 -32 30.5 -51t27.5 -26q31 9 71 58z" />
<glyph unicode="&#xc5;" horiz-adv-x="696" d="M704 0v34q-22 5 -37.5 8.5t-26.5 4.5q-7 2 -10 19l-41 232q-10 56 -21 111t-23 110q-14 65 -14 88q0 11 1 11l74 15v48q-46 0 -88 -3t-84 -8q-45 -6 -108 -6q-102 0 -288 24v-50q17 -10 36 -16t38 -7l109 -5h-1q3 -2 3 -8q0 -11 -12 -41q-10 -23 -14.5 -36.5l-5.5 -16.5 v2q-37 -123 -65.5 -221t-50.5 -173q-7 -22 -10 -34t-4 -14v1q-8 -17 -35 -26v1q-7 -2 -15 -5.5t-11 -5.5v-43q34 0 69 3q34 3 43 3q30 0 49.5 4t31 9t16 9t3.5 4l10 -10v39l-69 2q-8 2 -8 27q0 35 26 133q13 50 33 61q22 12 119 18q8 1 25.5 2.5t44.5 5.5q13 2 21 3t13 1.5 t9.5 1t10.5 1.5q16 0 21 -39l17 -195v-3q0 -11 -6 -12l1 1q-10 -3 -18.5 -6t-15.5 -5t-15.5 -4.5t-13.5 -4.5v-44q42 3 80.5 5t64.5 2q33 0 131 -12zM448 395q0 -9 -13 -11l-175 -8h-8q-32 0 -32 7q0 23 20 81l50 145l103 1l38 -140q17 -63 17 -75zM346 691q71 0 71 78 q0 70 -58 70q-15 0 -29.5 -6.5t-25 -17t-17 -24t-6.5 -28.5q0 -72 65 -72zM343 795q19 0 19 -46q0 -16 -4 -16q-7 0 -14 11.5t-7 23.5q0 27 6 27z" />
<glyph unicode="&#xc6;" horiz-adv-x="1071" d="M1048 437l-98 -7q2 23 12 54t28 68v-1q15 28 28.5 53t21.5 37l-51 19q-14 -21 -27 -39t-22 -30q-104 93 -158 93q-28 0 -94 -20q-26 -8 -47 -15.5t-35 -15.5v48q-46 0 -88 -3t-84 -8q-45 -6 -108 -6q-102 0 -288 24v-50q17 -10 36 -16t38 -7l109 -5h-1q3 -2 3 -8 q0 -11 -12 -41q-10 -23 -14.5 -36.5l-5.5 -16.5v2q-37 -123 -65.5 -221t-50.5 -173q-7 -22 -10 -34t-4 -14v1q-8 -17 -35 -26v1q-7 -2 -15 -5.5t-11 -5.5v-43q34 0 69 3q34 3 43 3q30 0 49.5 4t31 9t16 9t3.5 4l10 -10v39l-69 2h1q-9 1 -9 27q0 35 26 133q13 50 33 61 q22 12 119 18q8 1 25.5 2.5t44.5 5.5q13 2 21 3t13 1.5t9.5 1t10.5 1.5q16 0 21 -39l17 -195v-3q0 -11 -6 -12l1 1q-10 -3 -18.5 -6t-15.5 -5t-15.5 -4.5t-13.5 -4.5v-44q42 3 80.5 5t64.5 2q12 0 34.5 -1.5t54.5 -5.5q26 -11 57 -16t63 -5q71 0 191 43v-157l64 35 q1 72 2.5 131t3.5 103q16 205 27 297zM839 70q-97 0 -173 72q-76 73 -76 166q0 10 17 14q15 3 58 3h318l-18 -231q-81 -24 -126 -24zM448 395q0 -9 -13 -11l-175 -8h-8q-32 0 -32 7q0 23 20 81l50 145l103 1l38 -140q17 -63 17 -75zM618 416q-22 0 -22 24q0 37 28 95 q33 68 77 68q84 0 187 -179l-267 -8h-3zM595 627v1q-17 -11 -31.5 -25.5t-28.5 -34.5q-4 20 -4 39q0 11 1 11l71 14q-5 -2 -8 -5z" />
<glyph unicode="&#xc7;" horiz-adv-x="646" d="M373 -17q76 0 193 12v-184h61v267q0 53 -35 53q-19 0 -43 -26q-15 -17 -25.5 -27.5t-16.5 -15.5h1q-32 -21 -74 -21q-124 0 -206 93q-82 92 -82 234q0 113 41 183q39 67 103 67q43 0 84 -27t121 -112q129 94 168 117l-38 53q-44 -29 -80 -45q-108 97 -198 97 q-64 0 -142 -39q-86 -44 -133 -113q-51 -75 -51 -215q0 -320 289 -347l-32 -76h41q13 0 13 -8q0 -25 -54 -25q-2 0 -8 1.5t-18 3.5l-17 -43q30 -9 64 -9q50 0 79.5 19.5t29.5 54.5q0 52 -59 58l8 20h16z" />
<glyph unicode="&#xc8;" horiz-adv-x="620" d="M600 437l-98 -7q2 23 12 54t28 68v-1q15 28 28.5 53t21.5 37l-51 19q-14 -21 -27 -39t-22 -30q-104 93 -158 93q-28 0 -94 -20q-64 -18 -93 -37v1q-55 -32 -92 -119q-34 -84 -34 -184q0 -163 80 -256q80 -95 222 -95q67 0 191 43v-157l64 35q1 72 2.5 131t3.5 103 q16 205 27 297zM391 70q-97 0 -173 72q-76 73 -76 166q0 10 17 14q15 3 58 3h318l-18 -231q-81 -24 -126 -24zM170 416q-22 0 -22 24q0 37 28 95q33 68 77 68q84 0 187 -179l-267 -8h-3zM361 719l-66 113h-88q-16 0 -16 -14q0 -8 11 -20l100 -107h47q16 0 16 14q0 6 -4 13v1 z" />
<glyph unicode="&#xc9;" horiz-adv-x="620" d="M600 437l-98 -7q2 23 12 54t28 68v-1q15 28 28.5 53t21.5 37l-51 19q-14 -21 -27 -39t-22 -30q-104 93 -158 93q-28 0 -94 -20q-64 -18 -93 -37v1q-55 -32 -92 -119q-34 -84 -34 -184q0 -163 80 -256q80 -95 222 -95q67 0 191 43v-157l64 35q1 72 2.5 131t3.5 103 q16 205 27 297zM391 70q-97 0 -173 72q-76 73 -76 166q0 10 17 14q15 3 58 3h318l-18 -231q-81 -24 -126 -24zM170 416q-22 0 -22 24q0 37 28 95q33 68 77 68q84 0 187 -179l-267 -8h-3zM483 818q0 14 -16 14h-88l-66 -114q-4 -7 -4 -13q0 -14 16 -14h47l99 107q12 15 12 20 z" />
<glyph unicode="&#xca;" horiz-adv-x="620" d="M357 832q8 -3 13 -11l83 -99v-2q7 -13 8 -15q0 -14 -15 -14h-80l-30 56l-29 -56h-80q-15 0 -15 14q2 4 4 7.5t4 7.5l82 101q1 6 14 11h41zM600 437l-98 -7q4 48 40 122v-1q20 37 32.5 59.5t17.5 30.5l-51 19q-13 -19 -25.5 -36t-23.5 -33q-104 93 -158 93q-28 0 -96 -20 q-32 -10 -55 -19.5t-36 -17.5v1q-63 -37 -98 -135q-28 -78 -28 -168q0 -155 73 -247q79 -103 229 -103q66 0 191 42v-156l64 35q1 174 6 233q12 165 27 297zM391 70q-96 0 -173 71q-76 70 -76 167q0 17 75 17h318l-18 -231q-81 -24 -126 -24zM170 416q-22 0 -22 24 q0 39 28 95q33 68 77 68q83 0 187 -179l-267 -8h-3z" />
<glyph unicode="&#xcb;" horiz-adv-x="620" d="M600 437l-98 -7q2 23 12 54t28 68v-1q15 28 28.5 53t21.5 37l-51 19q-14 -21 -27 -39t-22 -30q-104 93 -158 93q-28 0 -94 -20q-64 -18 -93 -37v1q-55 -32 -92 -119q-34 -84 -34 -184q0 -163 80 -256q80 -95 222 -95q67 0 191 43v-157l64 35q1 72 2.5 131t3.5 103 q16 205 27 297zM391 70q-97 0 -173 72q-76 73 -76 166q0 10 17 14q15 3 58 3h318l-18 -231q-81 -24 -126 -24zM170 416q-22 0 -22 24q0 37 28 95q33 68 77 68q84 0 187 -179l-267 -8h-3zM319 760q-26 48 -61 74l-71 -66q32 -63 59 -77q31 10 72 57zM475 760q-30 53 -60 74 l-70 -66q16 -32 30.5 -51t27.5 -26q31 9 71 58z" />
<glyph unicode="&#xcc;" horiz-adv-x="467" d="M465 -13v30l-103 14v562l86 18l-14 50l-71 -10l5 48h-55l-4 -53q-11 -3 -25 -4t-31 -1q-82 0 -155 9q-11 1 -21 2t-21 3t-26 3t-26 3l-4 -54l172 -15q8 -1 14 -20t6 -45v-403q0 -42 -5.5 -70.5t-14.5 -29.5l-126 -13l-5 -48q81 11 140 16t99 6h17q30 0 69 -2t88 -6z M235 719l-66 113h-88q-16 0 -16 -14q0 -8 11 -20l100 -107h47q16 0 16 14q0 6 -4 13v1zM304 589h5v-556h-5v556z" />
<glyph unicode="&#xcd;" horiz-adv-x="467" d="M465 -13v30l-103 14v562l86 18l-14 50l-71 -10l5 48h-55l-4 -53q-11 -3 -25 -4t-31 -1q-82 0 -155 9q-11 1 -21 2t-21 3t-26 3t-26 3l-4 -54l172 -15q8 -1 14 -20t6 -45v-403q0 -42 -5.5 -70.5t-14.5 -29.5l-126 -13l-5 -48q81 11 140 16t99 6h17q30 0 69 -2t88 -6z M405 818q0 14 -16 14h-88l-66 -114q-4 -7 -4 -13q0 -14 16 -14h47l99 107q12 15 12 20zM304 589h5v-556h-5v556z" />
<glyph unicode="&#xce;" horiz-adv-x="467" d="M64 -7l-8 -1l9 9zM418 639l-2 8l11 -7zM445 0v8l9 -10zM331 679h-9l10 9zM12 626l9 -1v-10zM22 638q-2 1 -5 1t-5 1l11 9zM346 679l1 11l10 -11h-11zM445 -2q7 0 11 -1l-11 -10v11zM422 626l11 3l-8 -13zM51 -15q3 1 6 1t6 1l-1 -13zM265 832q6 -2 8.5 -5t4.5 -6l83 -99 v-2q3 -6 5.5 -10.5l2.5 -4.5q0 -14 -15 -14h-80l-29 56l-30 -56h-80q-15 0 -15 14l2 4.5t6 10.5v2l82 99q2 7 14 11h41zM284 609v-596h45v596h-45zM445 -2q-45 3 -82.5 5t-65.5 2h-17q-41 -1 -94.5 -5t-122.5 -13l1 6l110 11q17 1 27.5 35t10.5 85v403q0 33 -11.5 58 t-26.5 27l-153 13l1 13q8 -1 16 -1.5t16 -1.5q11 -2 21 -3t21 -2q73 -9 157 -9q43 0 76 9l2 49h15l-5 -51l77 11l4 -13l-80 -16v-596l103 -14v-2z" />
<glyph unicode="&#xcf;" horiz-adv-x="467" d="M375 760q-30 53 -60 74l-70 -66q16 -32 30.5 -51t27.5 -26l9 3l-3 -48q-11 -3 -25 -4t-31 -1q-82 0 -155 9q-11 1 -21 2t-21 3t-26 3t-26 3l-4 -54l172 -15q8 -1 14 -20t6 -45v-403q0 -42 -5.5 -70.5t-14.5 -29.5l-126 -13l-5 -48q81 11 140 16t99 6h17q30 0 69 -2t88 -6 l11 10v30l-103 14v562l86 18l-14 50l-71 -10l5 48h-48q23 13 54 50zM219 760q-26 48 -61 74l-71 -66q32 -63 59 -77q31 10 72 57zM304 589h5v-556h-5v556z" />
<glyph unicode="&#xd0;" horiz-adv-x="752" d="M85 353v-66h84v-139q0 -38 -5 -53q-6 -16 -23 -17l-53 -7q-50 -8 -78 -54q-22 -35 -22 -82q0 -40 27 -65l37 25q-5 22 -5 26q0 41 43 63h-1q31 15 68 15h7q4 0 9 -1l275 -23h-1q5 -1 9 -1h10q100 0 177 95q84 102 84 239q0 180 -77.5 272t-228.5 92q-78 0 -112 -21 l-75 -46q-14 -7 -23 -7h2l-198 36q-15 -27 -15 -38q0 -14 131 -38q23 -6 31 -90q3 -39 4.5 -67.5l2.5 -47.5h-84zM272 463q0 87 14 103q23 26 75 26q109 0 183 -89q74 -90 74 -227q0 -225 -131 -225q-41 0 -75.5 3t-65.5 8q-51 9 -53 17l-11 207v1h271v66h-276q-3 41 -4 68 t-1 42z" />
<glyph unicode="&#xd1;" horiz-adv-x="804" d="M799 598v50l-251 -8v-47l91 -8q11 -2 11 -88v-273q0 -42 -4 -42q-5 0 -48 40l-354 329q-31 30 -40 50q-6 18 -6 71h-22q-25 0 -68 -3q-25 -1 -58 -9q-40 -7 -50 -22l8 -40q20 5 40 7.5t42 2.5q15 0 17 -2q6 -5 11 -30l25 -115v-237q0 -35 -9 -102q-11 -72 -18 -78 q-21 -15 -70 -15q-4 -8 -4.5 -12t-0.5 -9v-11q0 -7 2 -19q114 12 173 12q22 0 56 -2t72 -5l5 47q-36 7 -67 10.5t-57 3.5q-27 0 -27 47v335l452 -398v-49h56l10 518q2 83 13 86zM540 779q-5 0 -15 -6q-7 -3 -15 -6t-12 -3q-5 0 -13 2t-19 5q-16 5 -36.5 9t-46.5 4 q-39 0 -85 -32q-37 -26 -37 -48q0 -8 3.5 -13t8.5 -5v20q-1 0 17 0.5t51 0.5q4 0 41 -8q17 -4 31.5 -6t27.5 -2q30 0 58 17l10 7h-1q17 11 31 22t14 26q0 10 -9 15z" />
<glyph unicode="&#xd2;" horiz-adv-x="735" d="M710 324q0 180 -88 272.5t-256 92.5q-84 0 -147.5 -24.5t-106.5 -71.5t-65 -115t-22 -154q0 -84 23 -149t66 -110t104.5 -68.5t139.5 -23.5q164 0 258 94t94 257zM578 284q0 -240 -157 -240q-116 0 -194 95q-78 99 -78 243q0 113 47.5 176.5t130.5 63.5q113 0 181 -91 q70 -91 70 -247zM398 719l-66 113h-88q-16 0 -16 -14q0 -8 11 -20l100 -107h47q16 0 16 14q0 6 -4 13v1z" />
<glyph unicode="&#xd3;" horiz-adv-x="735" d="M710 324q0 180 -88 272.5t-256 92.5q-84 0 -147.5 -24.5t-106.5 -71.5t-65 -115t-22 -154q0 -84 23 -149t66 -110t104.5 -68.5t139.5 -23.5q164 0 258 94t94 257zM578 284q0 -240 -157 -240q-116 0 -194 95q-78 99 -78 243q0 113 47.5 176.5t130.5 63.5q113 0 181 -91 q70 -91 70 -247zM509 818q0 14 -16 14h-88l-66 -114q-4 -7 -4 -13q0 -14 16 -14h47l99 107q12 15 12 20z" />
<glyph unicode="&#xd4;" horiz-adv-x="735" d="M391 832q6 -2 8.5 -5t4.5 -6l83 -99v-2q3 -6 5.5 -10.5l2.5 -4.5q0 -14 -15 -14h-80l-30 56l-29 -56h-80q-15 0 -15 14l2 4.5t6 10.5v2l82 99q2 7 14 11h41zM598 284q0 162 -74 259q-74 99 -197 99q-92 0 -145 -69t-53 -191q0 -150 82 -255q84 -103 210 -103 q177 0 177 260zM690 324q0 -155 -88 -243t-244 -88q-73 0 -131 22t-98.5 64.5t-62 104t-21.5 140.5q0 82 21 146t61.5 108t100.5 67.5t138 23.5q159 0 241.5 -88t82.5 -257z" />
<glyph unicode="&#xd5;" horiz-adv-x="735" d="M710 324q0 180 -88 272.5t-256 92.5q-84 0 -147.5 -24.5t-106.5 -71.5t-65 -115t-22 -154q0 -84 23 -149t66 -110t104.5 -68.5t139.5 -23.5q164 0 258 94t94 257zM578 284q0 -240 -157 -240q-116 0 -194 95q-78 99 -78 243q0 113 47.5 176.5t130.5 63.5q113 0 181 -91 q70 -91 70 -247zM511 779q-5 0 -15 -6q-7 -3 -15 -6t-12 -3q-5 0 -13 2t-19 5q-16 5 -36.5 9t-46.5 4q-39 0 -85 -32q-37 -26 -37 -48q0 -8 3.5 -13t8.5 -5v20q-1 0 17 0.5t51 0.5q4 0 41 -8q17 -4 31.5 -6t27.5 -2q30 0 58 17l10 7h-1q17 11 31 22t14 26q0 10 -9 15z" />
<glyph unicode="&#xd6;" horiz-adv-x="735" d="M710 324q0 180 -88 272.5t-256 92.5q-84 0 -147.5 -24.5t-106.5 -71.5t-65 -115t-22 -154q0 -84 23 -149t66 -110t104.5 -68.5t139.5 -23.5q164 0 258 94t94 257zM578 284q0 -240 -157 -240q-116 0 -194 95q-78 99 -78 243q0 113 47.5 176.5t130.5 63.5q113 0 181 -91 q70 -91 70 -247zM369 760q-26 48 -61 74l-71 -66q32 -63 59 -77q31 10 72 57zM525 760q-30 53 -60 74l-70 -66q16 -32 30.5 -51t27.5 -26q31 9 71 58z" />
<glyph unicode="&#xd7;" horiz-adv-x="532" d="M114 57h15l1 1q0 7 -0.5 8t-4.5 1q1 -1 -2 -1zM100 458l149 -150l148 137l36 -87l-121 -114l143 -145l-41 -82l-165 164q-45 -49 -73.5 -79.5t-42.5 -44.5q0 -14 -9.5 -11t-26.5 32q-18 30 -18 43q0 5 3 9q26 32 51.5 60.5t51.5 54.5l-133 133z" />
<glyph unicode="&#xd8;" horiz-adv-x="735" d="M604 694l-38 -55q-80 50 -200 50q-84 0 -147.5 -24.5t-106.5 -71.5t-65 -115t-22 -154q0 -195 118 -286l-30 -41l41 -29l31 43q73 -38 173 -38q164 0 258 94t94 257q0 192 -104 285l40 57zM149 382q0 113 47.5 176.5t130.5 63.5q105 0 171 -79l-278 -396q-71 93 -71 235z M578 284q0 -240 -157 -240q-96 0 -166 66l274 390q49 -86 49 -216z" />
<glyph unicode="&#xd9;" horiz-adv-x="648" d="M658 39q-58 33 -71 59q-7 14 -10.5 40.5t-3.5 67.5v422l-151 -6v-40q25 -12 26 -15q22 -25 22 -84v-283q0 -134 -143 -134q-42 0 -88 23q-44 23 -58 52q-20 40 -20 141v196q0 15 2.5 51.5t7.5 93.5q-41 -4 -84.5 -5.5t-91.5 -1.5v-40q17 -7 26.5 -12t14.5 -8h-1 q20 -17 20 -40v-333q0 -94 62 -153q61 -58 162 -58q58 0 117 37q19 16 38 31q8 7 17 13.5t18 14.5l73 -71q16 -16 44 -16q30 0 74 42zM333 719l-66 113h-88q-16 0 -16 -14q0 -8 11 -20l100 -107h47q16 0 16 14q0 6 -4 13v1z" />
<glyph unicode="&#xda;" horiz-adv-x="648" d="M658 39q-58 33 -71 59q-7 14 -10.5 40.5t-3.5 67.5v422l-151 -6v-40q25 -12 26 -15q22 -25 22 -84v-283q0 -134 -143 -134q-42 0 -88 23q-44 23 -58 52q-20 40 -20 141v196q0 15 2.5 51.5t7.5 93.5q-41 -4 -84.5 -5.5t-91.5 -1.5v-40q17 -7 26.5 -12t14.5 -8h-1 q20 -17 20 -40v-333q0 -94 62 -153q61 -58 162 -58q58 0 117 37q19 16 38 31q8 7 17 13.5t18 14.5l73 -71q16 -16 44 -16q30 0 74 42zM447 818q0 14 -16 14h-88l-66 -114q-4 -7 -4 -13q0 -14 16 -14h47l99 107q12 15 12 20z" />
<glyph unicode="&#xdb;" horiz-adv-x="648" d="M442 594v-6l-6 9zM15 589v-6l-6 9zM442 602h-10l10 10v-10zM15 596h-10l10 10v-10zM553 607v11l10 -10zM161 602q-4 -1 -12 -1q0 8 1 12zM648 21q-8 4 -12 7q2 2 4.5 4t5.5 5zM335 832q6 -2 8.5 -5t4.5 -6l83 -99v-2q3 -5 5.5 -10l2.5 -5q0 -14 -15 -14h-80l-29 56 l-30 -56h-80q-15 0 -15 14l2 4.5t6 10.5v2l82 99q2 7 14 11h41zM636 28q-32 -27 -50 -27q-20 0 -30 10l-87 85q-11 -9 -23.5 -20.5t-23.5 -19.5t-21 -17t-20 -17h1q-47 -30 -103 -30q-93 0 -148 52q-56 53 -56 139v333q0 34 -21 52q-7 5 -16.5 10.5t-22.5 10.5v7 q37 0 70.5 1.5t63.5 3.5q-5 -47 -6.5 -78t-1.5 -45v-196q0 -109 22 -150v1q18 -37 66 -62q47 -25 98 -25q163 0 163 154v283q0 66 -26 96q-5 5 -22 15v8l111 5v-401q0 -85 16 -116q16 -30 67 -62z" />
<glyph unicode="&#xdc;" horiz-adv-x="648" d="M658 39q-58 33 -71 59q-7 14 -10.5 40.5t-3.5 67.5v422l-151 -6v-40q25 -12 26 -15q22 -25 22 -84v-283q0 -134 -143 -134q-42 0 -88 23q-44 23 -58 52q-20 40 -20 141v196q0 15 2.5 51.5t7.5 93.5q-41 -4 -84.5 -5.5t-91.5 -1.5v-40q17 -7 26.5 -12t14.5 -8h-1 q20 -17 20 -40v-333q0 -94 62 -153q61 -58 162 -58q58 0 117 37q19 16 38 31q8 7 17 13.5t18 14.5l73 -71q16 -16 44 -16q30 0 74 42zM299 760q-26 48 -61 74l-71 -66q32 -63 59 -77q31 10 72 57zM455 760q-30 53 -60 74l-70 -66q16 -32 30.5 -51t27.5 -26q31 9 71 58z" />
<glyph unicode="&#xdd;" horiz-adv-x="490" d="M501 623q0 9 -15 18.5t-38 9.5q-13 0 -20.5 -1t-11.5 -5t-6.5 -12.5t-5.5 -24.5q-1 -5 -1.5 -10t-0.5 -10q-1 -5 -1 -11v-10q-5 -33 -25 -78q-11 -24 -24 -49.5t-28 -51.5q-27 -49 -29 -49q-9 0 -164 308q-10 10 -21 10q-5 0 -9 -2h1l-87 -32q-21 -6 -21 -29 q0 -18 36 -24l185 -321l-7 -141q-4 -79 -48 -86q-23 -5 -42.5 -10t-28.5 -7v-48q23 0 97 15q37 7 80.5 10.5t94.5 3.5h86v50l-104 4q-15 3 -15 82v141l125 243q48 93 48 117zM418 818q0 14 -16 14h-88l-66 -114q-4 -7 -4 -13q0 -14 16 -14h47l99 107q12 15 12 20z" />
<glyph unicode="&#xde;" horiz-adv-x="722" d="M698 413q0 106 -108 144q-68 24 -212 24h-62q-23 -1 -39 -1h-23q-20 0 -25 14v-1q-10 28 -31 28q-31 0 -92 11q-23 4 -53 9t-53 10v-49l101 -21q16 -3 30 -113q4 -36 5.5 -70.5t1.5 -67.5v-202q0 -73 -19 -89t-105 -16v-48q14 1 48.5 3t79.5 6q73 6 116 6q47 0 143 -9 q97 -9 155 -9v50q-57 9 -131.5 13.5t-166.5 5.5v95q57 -9 112 -9q117 0 218 77q110 85 110 209zM579 416v-5q0 -31 -10 -62t-29 -63q-48 -81 -131 -88h1q-4 0 -7 -0.5t-7 -0.5q-59 0 -125 46q-14 8 -14 10q-9 25 -9 45q0 4 3 207q0 6 20 6h32q11 -1 20 -1h14q66 0 106.5 -2 t57.5 -6q77 -18 78 -86z" />
<glyph unicode="&#xdf;" horiz-adv-x="427" d="M406 149q0 60 -49 101q-27 19 -80 42q51 31 72 60t21 68q0 22 -14 36q-6 5 -13 10t-19 13h1q-48 34 -112 34q-20 0 -38 -3.5t-37 -9.5l-1 45v31q0 33 1 38q6 36 32 36q29 0 91 -80q51 55 51 90q0 21 -36 41q-31 19 -52 19q-51 0 -96 -25t-65 -64q-14 -27 -22.5 -86.5 t-10.5 -152.5q-4 -2 -7 -4t-5 -4q-13 -9 -18 -14q-4 -10 -8.5 -24.5t-5.5 -16.5h49v-390q0 -23 21 -23q8 0 62 67q36 -18 97 -18q191 0 191 184zM189 230q41 0 75 -31q19 -17 27.5 -34t9.5 -37v-4q0 -43 -33 -77q-35 -35 -80 -35q-17 0 -33 8l-7 5t-19 14l3 191h57zM133 343 v-1l4 45l1 53q9 4 22 4q62 0 80 -6q23 -8 23 -35q0 -86 -131 -109z" />
<glyph unicode="&#xe0;" d="M390 31q-46 20 -60.5 37t-14.5 31v210q0 34 -50 75h1q-48 42 -89 42q-24 0 -84 -42q-64 -46 -64 -75q0 -17 15 -31t28 -14q11 0 37 13q32 17 32 31q0 13 -16 29q14 7 24 7q54 0 59 -104l-133 -81q-23 -14 -38.5 -43t-15.5 -58q0 -38 23.5 -63.5t58.5 -25.5q37 0 52 10 q25 18 41 29t24 16q7 -3 34 -27q3 -3 10.5 -5.5t20.5 -7.5q25 -9 34 -9q20 0 33 11zM215 506l-66 113h-88q-16 0 -16 -14q0 -8 11 -20l100 -107h47q16 0 16 14q0 6 -4 13v1zM208 78q0 -7 -19 -21l1 1q-23 -13 -35 -13q-30 0 -30 33q0 31 17 52q34 45 62 45q3 0 3.5 -1 t0.5 -6v-90z" />
<glyph unicode="&#xe1;" d="M390 31q-46 20 -60.5 37t-14.5 31v210q0 34 -50 75h1q-48 42 -89 42q-24 0 -84 -42q-64 -46 -64 -75q0 -17 15 -31t28 -14q11 0 37 13q32 17 32 31q0 13 -16 29q14 7 24 7q54 0 59 -104l-133 -81q-23 -14 -38.5 -43t-15.5 -58q0 -38 23.5 -63.5t58.5 -25.5q37 0 52 10 q25 18 41 29t24 16q7 -3 34 -27q3 -3 10.5 -5.5t20.5 -7.5q25 -9 34 -9q20 0 33 11zM320 605q0 14 -16 14h-88l-66 -114q-4 -7 -4 -13q0 -14 16 -14h47l99 107q12 15 12 20zM208 78q0 -7 -19 -21l1 1q-23 -13 -35 -13q-30 0 -30 33q0 31 17 52q34 45 62 45q3 0 3.5 -1 t0.5 -6v-90z" />
<glyph unicode="&#xe2;" d="M370 18q-3 2 -6 2.5t-6 2.5l8 10zM228 168q0 20 -3 23.5t-21 3.5q-38 0 -78 -53q-21 -27 -21 -64q0 -53 50 -53q21 0 45 15q28 19 28 38v90zM203 619q6 -2 8.5 -5t4.5 -6l83 -99v-2q3 -5 5.5 -10l2.5 -5q0 -14 -15 -14h-80l-30 56l-29 -56h-80q-15 0 -15 14l2 4.5t6 10.5 v2l82 99q2 7 14 11h41zM338 0q-7 -5 -19 -5q-4 0 -11 2t-17 5q-20 6 -23 9q-37 34 -53 34q-8 -5 -25.5 -17t-46.5 -33q-8 -6 -40 -6q-26 0 -44 20t-18 49q0 24 13 48t31 35l143 87q-3 136 -79 136q-8 0 -22.5 -6t-34.5 -20q29 -25 29 -30q0 -3 -21 -13h1q-24 -11 -29 -11 q-7 0 -15 8t-8 17q0 18 56 59q53 38 72 38q31 0 75 -38q43 -36 43 -59v-210q0 -18 12.5 -37t50.5 -39z" />
<glyph unicode="&#xe3;" d="M390 31q-46 20 -60.5 37t-14.5 31v210q0 34 -50 75h1q-48 42 -89 42q-24 0 -84 -42q-64 -46 -64 -75q0 -17 15 -31t28 -14q11 0 37 13q32 17 32 31q0 13 -16 29q14 7 24 7q54 0 59 -104l-133 -81q-23 -14 -38.5 -43t-15.5 -58q0 -38 23.5 -63.5t58.5 -25.5q37 0 52 10 q25 18 41 29t24 16q7 -3 34 -27q3 -3 10.5 -5.5t20.5 -7.5q25 -9 34 -9q20 0 33 11zM317 566q-5 0 -15 -6q-7 -3 -15 -6t-12 -3q-5 0 -13 2t-19 5q-16 5 -36.5 9t-46.5 4q-39 0 -85 -32q-37 -26 -37 -48q0 -8 3.5 -13t8.5 -5v20q-1 0 17 0.5t51 0.5q4 0 41 -8q17 -4 31.5 -6 t27.5 -2q30 0 58 17l10 7h-1q17 11 31 22t14 26q0 10 -9 15zM208 78q0 -7 -19 -21l1 1q-23 -13 -35 -13q-30 0 -30 33q0 31 17 52q34 45 62 45q3 0 3.5 -1t0.5 -6v-90z" />
<glyph unicode="&#xe4;" d="M390 31q-46 20 -60.5 37t-14.5 31v210q0 34 -50 75h1q-48 42 -89 42q-24 0 -84 -42q-64 -46 -64 -75q0 -17 15 -31t28 -14q11 0 37 13q32 17 32 31q0 13 -16 29q14 7 24 7q54 0 59 -104l-133 -81q-23 -14 -38.5 -43t-15.5 -58q0 -38 23.5 -63.5t58.5 -25.5q37 0 52 10 q25 18 41 29t24 16q7 -3 34 -27q3 -3 10.5 -5.5t20.5 -7.5q25 -9 34 -9q20 0 33 11zM228 597q0 22 -27 22h-47q-14 0 -21 -13.5t-12 -30.5l1 1q-1 -2 -1 -4q0 -1 -1 -3q-12 -28 -17.5 -45t-5.5 -23q0 -23 32 -23q8 0 26 20l47 52q26 29 26 47zM333 597q0 22 -27 22h-47 q-14 0 -21 -13.5t-12 -30.5l1 1q-1 -2 -1 -4q0 -1 -1 -3q-12 -28 -17.5 -45t-5.5 -23q0 -23 32 -23q8 0 26 20l47 52q26 29 26 47zM208 78q0 -7 -19 -21l1 1q-23 -13 -35 -13q-30 0 -30 33q0 31 17 52q34 45 62 45q3 0 3.5 -1t0.5 -6v-90z" />
<glyph unicode="&#xe5;" d="M390 31q-46 20 -60.5 37t-14.5 31v210q0 34 -50 75h1q-48 42 -89 42q-24 0 -84 -42q-64 -46 -64 -75q0 -17 15 -31t28 -14q11 0 37 13q32 17 32 31q0 13 -16 29q14 7 24 7q54 0 59 -104l-133 -81q-23 -14 -38.5 -43t-15.5 -58q0 -38 23.5 -63.5t58.5 -25.5q37 0 52 10 q25 18 41 29t24 16q7 -3 34 -27q3 -3 10.5 -5.5t20.5 -7.5q25 -9 34 -9q20 0 33 11zM190 478q71 0 71 78q0 70 -58 70q-15 0 -29.5 -6.5t-25 -17t-17 -24t-6.5 -28.5q0 -72 65 -72zM208 78q0 -7 -19 -21l1 1q-23 -13 -35 -13q-30 0 -30 33q0 31 17 52q34 45 62 45 q3 0 3.5 -1t0.5 -6v-90zM187 582q19 0 19 -46q0 -16 -4 -16q-7 0 -14 11.5t-7 23.5q0 27 6 27z" />
<glyph unicode="&#xe6;" horiz-adv-x="530" d="M551 351l-30 38l-37 -23q-42 57 -85 57q-57 0 -122 -50q-51 53 -100 53q-24 0 -84 -42q-64 -46 -64 -75q0 -17 15 -31t28 -14q11 0 37 13q32 17 32 31q0 13 -16 29q14 7 24 7q54 0 59 -104l-133 -81q-23 -14 -38.5 -43t-15.5 -58q0 -38 23.5 -63.5t58.5 -25.5q37 0 52 10 q25 18 41 29t24 16q7 -3 34 -27q3 -3 10.5 -5.5t20.5 -7.5q25 -9 34 -9q5 0 8 0.5t7 1.5q15 -3 34 -3q28 0 57 18l113 75l-27 46l-85 -55q-5 -4 -15 -4q-30 0 -60 31t-36 75v34q0 2 0.5 3t0.5 3l143 86zM189 57l1 1q-23 -13 -35 -13q-30 0 -30 33q0 31 17 52q34 45 62 45h2 q0 -8 0.5 -16.5t1.5 -16.5v-64q0 -7 -19 -21zM399 322q0 -6 -12 -13v1l-70 -40q2 19 5.5 35.5t8.5 32.5q6 21 29 21q6 0 23 -17q16 -16 16 -20z" />
<glyph unicode="&#xe7;" horiz-adv-x="341" d="M274 2q13 9 33.5 30.5t50.5 54.5l-37 37q-58 -70 -86 -70q-25 0 -45.5 11.5t-35.5 32.5t-23.5 49.5t-8.5 62.5q0 87 8 117q11 38 45 38q24 0 56 -40q2 -2 3 -4t3 -4q16 -20 26.5 -29.5l10.5 -9.5q11 0 35 25q25 25 25 41q0 32 -45 61q-44 27 -91 27q-42 0 -76 -18 t-58 -52t-36.5 -81.5t-12.5 -107.5q0 -85 35 -135t101 -60l-27 -55h40q12 0 12 -5q0 -20 -51 -20q-1 0 -7 1.5t-18 3.5l-17 -39q30 -9 62 -9q105 0 105 65q0 44 -55 50l2 5q42 3 77 27z" />
<glyph unicode="&#xe8;" horiz-adv-x="339" d="M362 351l-30 38l-37 -23q-42 57 -85 57q-44 0 -79 -19q-14 -8 -57 -43q-29 -24 -44 -77q-13 -45 -13 -102q0 -100 42.5 -154t119.5 -54q28 0 57 18l113 75l-27 46l-85 -55q-5 -4 -15 -4q-32 0 -64 35q-33 37 -33 87v12t2 12l143 86zM215 506l-66 113h-88q-16 0 -16 -14 q0 -8 11 -20l100 -107h47q16 0 16 14q0 6 -4 13v1zM210 322q0 -6 -12 -13v1l-70 -40q2 19 5.5 35.5t8.5 32.5q6 21 29 21q6 0 23 -17q16 -16 16 -20z" />
<glyph unicode="&#xe9;" horiz-adv-x="339" d="M362 351l-30 38l-37 -23q-42 57 -85 57q-44 0 -79 -19q-14 -8 -57 -43q-29 -24 -44 -77q-13 -45 -13 -102q0 -100 42.5 -154t119.5 -54q28 0 57 18l113 75l-27 46l-85 -55q-5 -4 -15 -4q-32 0 -64 35q-33 37 -33 87v12t2 12l143 86zM320 605q0 14 -16 14h-88l-66 -114 q-4 -7 -4 -13q0 -14 16 -14h47l99 107q12 15 12 20zM210 322q0 -6 -12 -13v1l-70 -40q2 19 5.5 35.5t8.5 32.5q6 21 29 21q6 0 23 -17q16 -16 16 -20z" />
<glyph unicode="&#xea;" horiz-adv-x="339" d="M328 362l-6 8l13 -3zM322 71l9 6l-4 -13zM314 85l-5 9l14 -3zM333 355l9 6l-2 -14zM230 322q0 12 -22 34q-21 23 -37 23q-40 0 -49 -35q-5 -19 -10 -46.5t-8 -65.5l104 60q22 14 22 30zM203 619q6 -2 8.5 -5t4.5 -6l83 -99v-2q3 -5 5.5 -10l2.5 -5q0 -14 -15 -14h-80 l-30 56l-29 -56h-80q-15 0 -15 14l2 4.5t6 10.5v2l82 99q2 7 14 11h41zM260 304l-151 -90q-4 -16 -4 -38q0 -56 39 -101h-1q36 -41 79 -41q14 0 27 8h-1l66 43l8 -14l-96 -63q-21 -14 -47 -14q-68 0 -105 48.5t-37 139.5q0 51 13 96q14 49 36 67q20 16 33 26t22 15 q34 17 69 17q34 0 79 -64l39 23l5 -7l-74 -52z" />
<glyph unicode="&#xeb;" horiz-adv-x="339" d="M362 351l-30 38l-37 -23q-42 57 -85 57q-44 0 -79 -19q-14 -8 -57 -43q-29 -24 -44 -77q-13 -45 -13 -102q0 -100 42.5 -154t119.5 -54q28 0 57 18l113 75l-27 46l-85 -55q-5 -4 -15 -4q-32 0 -64 35q-33 37 -33 87v12t2 12l143 86zM333 597q0 22 -27 22h-47 q-14 0 -21 -13.5t-12 -30.5l1 1q-1 -2 -1 -4q0 -1 -1 -3q-12 -28 -17.5 -45t-5.5 -23q0 -23 32 -23q8 0 26 20l47 52q26 29 26 47zM228 597q0 22 -27 22h-47q-14 0 -21 -13.5t-12 -30.5l1 1q-1 -2 -1 -4q0 -1 -1 -3q-12 -28 -17.5 -45t-5.5 -23q0 -23 32 -23q8 0 26 20 l47 52q26 29 26 47zM210 322q0 -6 -12 -13v1l-70 -40q2 19 5.5 35.5t8.5 32.5q6 21 29 21q6 0 23 -17q16 -16 16 -20z" />
<glyph unicode="&#xec;" horiz-adv-x="190" d="M208 76q-15 33 -31 33l-31 -22v297q0 47 -21 47q-2 0 -5 -1l-6 -2l1 1q-129 -30 -129 -50q0 -11 43 -54q13 -13 13 -66v-248q0 -22 3 -26t22 -4t49 22zM55 506l-65 113h-88q-16 0 -16 -14q0 -8 11 -20l99 -107h47q16 0 16 14q0 6 -4 13v1z" />
<glyph unicode="&#xed;" horiz-adv-x="190" d="M208 76q-15 33 -31 33l-31 -22v297q0 47 -21 47q-2 0 -5 -1l-6 -2l1 1q-129 -30 -129 -50q0 -11 43 -54q13 -13 13 -66v-248q0 -22 3 -26t22 -4t49 22zM260 605q0 14 -16 14h-88l-66 -114q-4 -7 -4 -13q0 -14 16 -14h47l99 107q12 15 12 20z" />
<glyph unicode="&#xee;" horiz-adv-x="190" d="M181 87l-1 1v1l6 2zM187 75q-1 2 -1.5 3.5t-1.5 3.5l6 5zM103 619q6 -2 8.5 -5t4.5 -6l83 -99v-2q3 -5 5.5 -10l2.5 -5q0 -14 -15 -14h-80l-30 56l-29 -56h-79q-15 0 -15 14l2.5 4.5t5.5 10.5v2l81 99q2 7 14 11h41zM104 19q-24 -18 -37 -18q-4 0 -4.5 1t-0.5 9v248 q0 61 -19 80q-37 37 -37 40t106 28q5 2 8.5 3t4.5 1t1 -27v-335l55 38q0 -1 3 -5z" />
<glyph unicode="&#xef;" horiz-adv-x="190" d="M208 76q-15 33 -31 33l-31 -22v297q0 47 -21 47q-2 0 -5 -1l-6 -2l1 1q-129 -30 -129 -50q0 -11 43 -54q13 -13 13 -66v-248q0 -22 3 -26t22 -4t49 22zM233 597q0 22 -27 22h-47q-14 0 -21 -13.5t-12 -30.5l1 1q-1 -2 -1 -4q0 -1 -1 -3q-12 -28 -17.5 -45t-5.5 -23 q0 -23 32 -23q8 0 26 20l47 52q26 29 26 47zM128 597q0 22 -27 22h-47q-14 0 -21 -13.5t-12 -30.5l1 1q-1 -2 -1 -4q0 -1 -1 -3q-12 -28 -17.5 -45t-5.5 -23q0 -23 32 -23q8 0 26 20l47 52q26 29 26 47z" />
<glyph unicode="&#xf0;" horiz-adv-x="433" d="M76 563l22 -61l118 42q27 -42 41.5 -71.5t18.5 -49.5q-29 3 -71 3q-191 0 -191 -226q0 -107 41 -166t113 -59q18 0 42 15l72 44q4 -57 35 -57l78 43q58 34 58 53l-14 35l-56 -26l-3 96l2 317l-65 86l90 33l-22 61l-108 -40l-37 50q-6 7 -9 23q-2 9 -7.5 12.5t-12.5 3.5 h-4q-119 -8 -119 -29q0 -10 19 -25h-1q13 -11 20.5 -18.5l12.5 -12.5l35 -40zM279 138q0 -41 -11 -46l-62 -34q-6 -3 -9 -3q-30 0 -54 55q-25 61 -25 135q0 120 48 120q53 0 87 -31q26 -23 26 -40v-156z" />
<glyph unicode="&#xf1;" horiz-adv-x="438" d="M460 89l-20 31q-20 -14 -36.5 -26t-30.5 -22q5 57 8.5 101t3.5 76q0 77 -28 113q-27 36 -110 64q-35 -15 -84 -49q-26 -19 -34 -22q-26 27 -62 53l-85 -49q43 -44 54 -73q9 -24 9 -74v-259l98 58v293l58 39q35 -1 61 -51q23 -46 23 -103v-12t-1 -13l-9 -121v1 q-2 -8 -3 -14t-2 -11q-3 -14 -3 -17q0 -7 11 -15t21 -8q18 0 79 35q28 20 47.5 36t33.5 27zM337 566q-5 0 -15 -6q-7 -3 -15 -6t-12 -3q-5 0 -13 2t-19 5q-16 5 -36.5 9t-46.5 4q-39 0 -85 -32q-37 -26 -37 -48q0 -8 3.5 -13t8.5 -5v20q-1 0 17 0.5t51 0.5q4 0 41 -8 q17 -4 31.5 -6t27.5 -2q30 0 58 17l10 7h-1q17 11 31 22t14 26q0 10 -9 15z" />
<glyph unicode="&#xf2;" horiz-adv-x="388" d="M372 235q0 203 -143 203q-91 0 -152 -73v1q-60 -69 -60 -174q0 -92 43 -155q44 -62 115 -62q37 0 85 29q66 40 89 93q23 47 23 138zM277 155q0 -106 -40 -106q-28 0 -50.5 13.5t-39 38t-25.5 59t-9 75.5q0 130 52 130q46 0 78 -59q34 -63 34 -151zM215 506l-66 113h-88 q-16 0 -16 -14q0 -8 11 -20l100 -107h47q16 0 16 14q0 6 -4 13v1z" />
<glyph unicode="&#xf3;" horiz-adv-x="388" d="M372 235q0 203 -143 203q-91 0 -152 -73v1q-60 -69 -60 -174q0 -92 43 -155q44 -62 115 -62q37 0 85 29q66 40 89 93q23 47 23 138zM277 155q0 -106 -40 -106q-28 0 -50.5 13.5t-39 38t-25.5 59t-9 75.5q0 130 52 130q46 0 78 -59q34 -63 34 -151zM370 605q0 14 -16 14 h-88l-66 -114q-4 -7 -4 -13q0 -14 16 -14h47l99 107q12 15 12 20z" />
<glyph unicode="&#xf4;" horiz-adv-x="388" d="M233 619q6 -2 8.5 -5t4.5 -6l83 -99v-2q3 -5 5.5 -10l2.5 -5q0 -14 -15 -14h-80l-30 56l-29 -56h-80q-15 0 -15 14l2 4.5t6 10.5v2l82 99q2 7 14 11h41zM297 155q0 96 -36 161q-38 69 -96 69q-72 0 -72 -150q0 -46 10.5 -84t29.5 -65t45.5 -42t58.5 -15q60 0 60 126z M352 235q0 -85 -21 -130q-20 -47 -81 -83q-47 -27 -75 -27q-60 0 -99 54q-39 55 -39 143q0 95 56 160q55 66 136 66q123 0 123 -183z" />
<glyph unicode="&#xf5;" horiz-adv-x="388" d="M372 235q0 203 -143 203q-91 0 -152 -73v1q-60 -69 -60 -174q0 -92 43 -155q44 -62 115 -62q37 0 85 29q66 40 89 93q23 47 23 138zM277 155q0 -106 -40 -106q-28 0 -50.5 13.5t-39 38t-25.5 59t-9 75.5q0 130 52 130q46 0 78 -59q34 -63 34 -151zM357 566q-5 0 -15 -6 q-7 -3 -15 -6t-12 -3q-5 0 -13 2t-19 5q-16 5 -36.5 9t-46.5 4q-39 0 -85 -32q-37 -26 -37 -48q0 -8 3.5 -13t8.5 -5v20q-1 0 17 0.5t51 0.5q4 0 41 -8q17 -4 31.5 -6t27.5 -2q30 0 58 17l10 7h-1q17 11 31 22t14 26q0 10 -9 15z" />
<glyph unicode="&#xf6;" horiz-adv-x="388" d="M372 235q0 203 -143 203q-91 0 -152 -73v1q-60 -69 -60 -174q0 -92 43 -155q44 -62 115 -62q37 0 85 29q66 40 89 93q23 47 23 138zM277 155q0 -106 -40 -106q-28 0 -50.5 13.5t-39 38t-25.5 59t-9 75.5q0 130 52 130q46 0 78 -59q34 -63 34 -151zM258 597q0 22 -27 22 h-47q-14 0 -21 -13.5t-12 -30.5l1 1q-1 -2 -1 -4q0 -1 -1 -3q-12 -28 -17.5 -45t-5.5 -23q0 -23 32 -23q8 0 26 20l47 52q26 29 26 47zM363 597q0 22 -27 22h-47q-14 0 -21 -13.5t-12 -30.5l1 1q-1 -2 -1 -4q0 -1 -1 -3q-12 -28 -17.5 -45t-5.5 -23q0 -23 32 -23q8 0 26 20 l47 52q26 29 26 47z" />
<glyph unicode="&#xf7;" horiz-adv-x="434" d="M411 181q0 24 -43 24h-9l-259 -13q-64 -3 -64 -47q0 -15 12.5 -27.5t28.5 -12.5l261 8q31 1 52 22t21 46zM289 259q10 12 10 23q0 12 -15 24l-53 43q-4 2 -6.5 3.5t-7.5 1.5q-11 0 -18 -10v1l-43 -50q-10 -12 -10 -22q0 -12 13 -24l47 -41v1q9 -9 20 -9q13 0 21 11v-1z M289 7q10 12 10 23q0 12 -15 24l-53 43q-4 2 -6.5 3.5t-7.5 1.5q-11 0 -18 -10v1l-43 -50q-10 -12 -10 -22q0 -12 13 -24l48 -40q10 -8 19 -8q13 0 21 11v-1z" />
<glyph unicode="&#xf8;" horiz-adv-x="388" d="M334 442l-23 -31q-32 27 -82 27q-91 0 -152 -73v1q-60 -69 -60 -174q0 -89 38 -147l-33 -46l42 -27l24 34q40 -31 87 -31q37 0 85 29q66 40 89 93q23 47 23 138q0 85 -27 136l30 43zM113 235q0 130 52 130q45 0 76 -55l-116 -164q-12 37 -12 89zM277 155q0 -106 -40 -106 q-52 0 -86 46l114 161q12 -44 12 -101z" />
<glyph unicode="&#xf9;" horiz-adv-x="406" d="M424 34q-23 18 -36 29t-16 17v-1q-7 16 -7 55v13q6 241 6 246q0 21 -16 24v-1q-4 2 -20 2l-51 -6q-33 -5 -49.5 -11.5t-16.5 -18.5t15 -27l38 -39q2 -26 3 -42.5t1 -23.5v-26q0 -76 -20.5 -121t-55.5 -45q-73 0 -73 149v25q1 8 1 15q0 8 1 15q9 117 9 133q0 17 -4.5 20 t-24.5 3l-86 -16q-34 -6 -34 -25q0 -12 13 -25l27 -27v-211q0 -54 41 -97q43 -41 96 -41q33 0 108 58q20 -25 45 -38l7 -3q7 -3 12.5 -5.5t12.5 -4.5zM215 506l-66 113h-88q-16 0 -16 -14q0 -8 11 -20l100 -107h47q16 0 16 14q0 6 -4 13v1z" />
<glyph unicode="&#xfa;" horiz-adv-x="406" d="M424 34q-23 18 -36 29t-16 17v-1q-7 16 -7 55v13q6 241 6 246q0 21 -16 24v-1q-4 2 -20 2l-51 -6q-33 -5 -49.5 -11.5t-16.5 -18.5t15 -27l38 -39q2 -26 3 -42.5t1 -23.5v-26q0 -76 -20.5 -121t-55.5 -45q-73 0 -73 149v25q1 8 1 15q0 8 1 15q9 117 9 133q0 17 -4.5 20 t-24.5 3l-86 -16q-34 -6 -34 -25q0 -12 13 -25l27 -27v-211q0 -54 41 -97q43 -41 96 -41q33 0 108 58q20 -25 45 -38l7 -3q7 -3 12.5 -5.5t12.5 -4.5zM330 605q0 14 -16 14h-88l-66 -114q-4 -7 -4 -13q0 -14 16 -14h47l99 107q12 15 12 20z" />
<glyph unicode="&#xfb;" horiz-adv-x="406" d="M347 5q2 0 2.5 -0.5t2.5 -0.5l-9 -2zM401 26q-8 6 -11 8l11 8v-16zM213 619q6 -2 8.5 -5t4.5 -6l83 -99v-2q3 -6 5.5 -10.5l2.5 -4.5q0 -14 -15 -14h-80l-30 56l-29 -56h-80q-15 0 -15 14l2 4.5t6 10.5v2l82 99q2 7 14 11h41zM347 5q-7 2 -9 3t-5 3l-6 3h1 q-14 8 -26.5 20t-24.5 28q-83 -66 -112 -66q-45 0 -82 35q-35 37 -35 83v219l-33 33q-7 7 -7 11q0 2 18 5l86 16q5 0 5 -3q0 -14 -9 -131q-1 -7 -1 -15q0 -7 -1 -15v-27q0 -169 93 -169q45 0 70.5 50.5t25.5 135.5v26q0 10 -1 28.5t-3 45.5l-44 45q-9 9 -9 13t48 10l51 6 q10 0 11 -1q3 -2 3 -4q0 -5 -6 -246v-13q0 -22 3.5 -39.5t8.5 -29.5q2 -5 10.5 -12.5t22.5 -18.5z" />
<glyph unicode="&#xfc;" horiz-adv-x="406" d="M424 34q-23 18 -36 29t-16 17v-1q-7 16 -7 55v13q6 241 6 246q0 21 -16 24v-1q-4 2 -20 2l-51 -6q-33 -5 -49.5 -11.5t-16.5 -18.5t15 -27l38 -39q2 -26 3 -42.5t1 -23.5v-26q0 -76 -20.5 -121t-55.5 -45q-73 0 -73 149v25q1 8 1 15q0 8 1 15q9 117 9 133q0 17 -4.5 20 t-24.5 3l-86 -16q-34 -6 -34 -25q0 -12 13 -25l27 -27v-211q0 -54 41 -97q43 -41 96 -41q33 0 108 58q20 -25 45 -38l7 -3q7 -3 12.5 -5.5t12.5 -4.5zM353 597q0 22 -27 22h-47q-14 0 -21 -13.5t-12 -30.5l1 1q-1 -2 -1 -4q0 -1 -1 -3q-12 -28 -17.5 -45t-5.5 -23 q0 -23 32 -23q8 0 26 20l47 52q26 29 26 47zM248 597q0 22 -27 22h-47q-14 0 -21 -13.5t-12 -30.5l1 1q-1 -2 -1 -4q0 -1 -1 -3q-12 -28 -17.5 -45t-5.5 -23q0 -23 32 -23q8 0 26 20l47 52q26 29 26 47z" />
<glyph unicode="&#xfd;" horiz-adv-x="389" d="M381 392q0 10 -13.5 20t-31.5 10q-41 0 -41 -22q0 1 1 -2.5t2 -6.5q3 -8 6 -19.5t3 -19.5q0 -2 -2 -10v-2q-16 -76 -30 -121h1q-10 -26 -18 -47t-14 -37q-6 15 -15 38.5t-21 56.5q-17 43 -26.5 68t-13.5 31q-54 92 -112 95q-22 -2 -45 -19q-24 -20 -24 -42q7 -5 12.5 -8 t12 -7t15.5 -10t24 -15q17 -11 31 -42l64 -147q17 -39 29 -73t19 -63q-10 -25 -16.5 -42.5t-11.5 -28.5q-111 -222 -111 -234q0 -15 36 -40t46 -25q18 0 71 68l-62 44q-2 2 -2 11q0 6 27 63q2 5 6 13q16 34 27 57t16 35q45 107 79.5 204t60.5 185q21 73 21 84zM350 605 q0 14 -16 14h-88l-66 -114q-4 -7 -4 -13q0 -14 16 -14h47l99 107q12 15 12 20z" />
<glyph unicode="&#xfe;" horiz-adv-x="558" d="M534 202q0 80 -31 136q-39 71 -113 78h-5q-11 0 -30 -1t-47 -3q-45 -5 -66 -6q-5 -1 -9 -1h-6q-5 -1 -11.5 -1.5t-12.5 -1.5q-20 -4 -29 -4v153q-42 -15 -86.5 -22t-92.5 -7v-38h14q33 0 46 -18q9 -12 9 -149q0 -477 -12 -640q-8 -2 -16 -7t-18 -12l15 -39q98 32 250 32 v48l-109 -3h-2q-14 0 -14 30q0 12 3.5 76.5t10.5 183.5q10 -1 22.5 -1.5t28.5 -0.5q132 0 213 48q98 59 98 170zM426 194q-1 -32 -18 -62t-44 -47q-35 -20 -127 -20q-23 0 -33 4q-23 10 -31 29q-5 10 -5 38v114q0 38 26 64.5t71 26.5q3 0 6 -0.5t7 -0.5q67 -6 106 -39h-1 q43 -37 43 -103v-4z" />
<glyph unicode="&#xff;" horiz-adv-x="389" d="M381 392q0 10 -13.5 20t-31.5 10q-41 0 -41 -22q0 1 1 -2.5t2 -6.5q3 -8 6 -19.5t3 -19.5q0 -2 -2 -10v-2q-16 -76 -30 -121h1q-10 -26 -18 -47t-14 -37q-6 15 -15 38.5t-21 56.5q-17 43 -26.5 68t-13.5 31q-54 92 -112 95q-22 -2 -45 -19q-24 -20 -24 -42q7 -5 12.5 -8 t12 -7t15.5 -10t24 -15q17 -11 31 -42l64 -147q17 -39 29 -73t19 -63q-10 -25 -16.5 -42.5t-11.5 -28.5q-111 -222 -111 -234q0 -15 36 -40t46 -25q18 0 71 68l-62 44q-2 2 -2 11q0 6 27 63q2 5 6 13q16 34 27 57t16 35q45 107 79.5 204t60.5 185q21 73 21 84zM373 597 q0 22 -27 22h-47q-14 0 -21 -13.5t-12 -30.5l1 1q-1 -2 -1 -4q0 -1 -1 -3q-12 -28 -17.5 -45t-5.5 -23q0 -23 32 -23q8 0 26 20l47 52q26 29 26 47zM268 597q0 22 -27 22h-47q-14 0 -21 -13.5t-12 -30.5l1 1q-1 -2 -1 -4q0 -1 -1 -3q-12 -28 -17.5 -45t-5.5 -23 q0 -23 32 -23q8 0 26 20l47 52q26 29 26 47z" />
<glyph unicode="&#x152;" horiz-adv-x="1189" d="M1167 437l-98 -7q2 23 12 54t28 68v-1q15 28 28.5 53t21.5 37l-51 19q-14 -21 -27 -39t-22 -30q-104 93 -158 93q-28 0 -94 -20q-64 -18 -93 -37v1q-18 -11 -35 -27.5t-31 -39.5q-87 128 -282 128q-84 0 -147.5 -24.5t-106.5 -71.5t-65 -115t-22 -154q0 -84 23 -149 t66 -110t104.5 -68.5t139.5 -23.5q193 0 286 127q79 -126 246 -126q67 0 191 43v-157l64 35q1 72 2.5 131t3.5 103q16 205 27 297zM578 284q0 -240 -157 -240q-116 0 -194 95q-78 99 -78 243q0 113 47.5 176.5t130.5 63.5q113 0 181 -91q70 -91 70 -247zM958 70 q-95 0 -169 68q-75 68 -80 157q1 4 1 8v9q5 13 74 13h318l-18 -231q-81 -24 -126 -24zM737 416q-22 0 -22 24q0 37 28 95q33 68 77 68q84 0 187 -179l-267 -8h-3z" />
<glyph unicode="&#x153;" horiz-adv-x="597" d="M619 351l-30 38l-37 -23q-42 57 -85 57q-39 0 -73 -17q-11 -8 -24 -16.5t-26 -18.5q-36 67 -115 67q-91 0 -152 -73v1q-60 -69 -60 -174q0 -92 43 -155q44 -62 115 -62q34 0 78 25q31 18 55 40q43 -66 128 -66q28 0 57 18l113 75l-27 46l-85 -55q-5 -4 -15 -4 q-32 0 -64 35q-33 37 -33 87v12t2 12l143 86zM237 49q-28 0 -50.5 13.5t-39 38t-25.5 59t-9 75.5q0 130 52 130q21 0 39.5 -12t32.5 -34t24 -51.5t14 -65.5q-1 -5 -1 -10v-10q0 -25 3 -46q-5 -87 -40 -87zM467 322q0 -6 -12 -13v1l-70 -40q2 19 5.5 35.5t8.5 32.5 q6 21 29 21q6 0 23 -17q16 -16 16 -20z" />
<glyph unicode="&#x160;" horiz-adv-x="598" d="M571 267q0 36 -7 62.5t-23 45t-42 30.5t-63 20q15 51 32 78q9 16 25.5 38.5t39.5 52.5l-47 33l-54 -72l1 1q-3 -3 -4 -3q-10 0 -67 47q-66 52 -101 52q-91 0 -161 -76t-70 -171q0 -160 113 -160q25 0 136 30q111 31 130 31q24 0 41 -25.5t17 -62.5q0 -41 -17 -97 q-17 -50 -32 -64q-17 -14 -67 -14q-76 0 -168 52l-113 65q-7 -30 -13.5 -59.5t-11.5 -46.5h1q-17 -49 -31 -88t-22 -60l46 -27l52 133q10 -5 20 -9.5t20 -9.5q4 -2 7.5 -3.5t7.5 -3.5q22 -10 43 -14.5t41 -4.5q159 0 250 79t91 221zM372 420q0 -8 -10 -12.5t-45 -12.5 l-102 -26q-11 -3 -24 -3q-54 0 -54 76q0 134 66 134q32 0 76 -47q5 -5 10 -10.5t10 -10.5q11 -11 20.5 -21.5t20.5 -21.5q32 -35 32 -45zM377 802v1l8 16q0 14 -15 14h-80l-29 -56l-30 56h-80q-15 0 -15 -14q0 -5 2 -7.5l6 -7.5v-2l82 -99q1 -7 14 -11h41q10 4 13 10z" />
<glyph unicode="&#x161;" horiz-adv-x="332" d="M314 146q0 87 -82 113q-74 18 -105 24q-6 2 -10.5 12t-4.5 19q0 20 15 35t33 15q17 0 27 -17v2q4 -13 8 -19q2 -5 5.5 -12t5.5 -12q30 0 53.5 15.5t23.5 35.5q0 28 -21.5 46t-53.5 18l-57 -6q-133 -13 -133 -136q0 -80 63 -92l83 -17q56 -12 56 -70q0 -23 -14 -39.5 t-32 -16.5q-9 0 -29 10q-10 6 -17.5 12.5t-12.5 15.5v-1q-2 3 -2.5 6.5t-2.5 6.5q-2 5 -4 8t-4 6.5t-3.5 9t-3.5 16.5q-21 0 -49 -19q-13 -9 -18 -14q-8 -9 -8 -36q0 -37 36 -64q37 -25 81 -25q68 0 123 52q54 52 54 118zM289 588v1l8 16q0 14 -15 14h-80l-30 -56l-29 56 h-80q-15 0 -15 -14q0 -5 2 -7.5l6 -7.5v-2l82 -99q1 -7 14 -11h41q10 4 13 10z" />
<glyph unicode="&#x178;" horiz-adv-x="490" d="M501 623q0 9 -15 18.5t-38 9.5q-13 0 -20.5 -1t-11.5 -5t-6.5 -12.5t-5.5 -24.5q-1 -5 -1.5 -10t-0.5 -10q-1 -5 -1 -10v-10q-5 -32 -25 -79q-11 -24 -24 -49.5t-28 -51.5q-27 -49 -29 -49q-9 0 -164 308q-10 10 -21 10q-5 0 -9 -2h1l-87 -32q-21 -6 -21 -29 q0 -18 36 -24l185 -321l-7 -141q-4 -79 -48 -86q-23 -5 -42.5 -10t-28.5 -7v-48q23 0 97 15q37 7 80.5 10.5t94.5 3.5h86v50l-104 4q-15 3 -15 82v141l125 243q48 93 48 117zM269 760q-26 48 -61 74l-71 -66q32 -63 59 -77q31 10 72 57zM425 760q-30 53 -60 74l-70 -66 q16 -32 30.5 -51t27.5 -26q31 9 71 58z" />
<glyph unicode="&#x192;" horiz-adv-x="500" d="M515 622q-26 34 -40 51t-16 19q-19 19 -39 19h-8q-9 -1 -22.5 -8t-33.5 -19q-23 -15 -40.5 -30.5t-30.5 -31.5q-39 -49 -61 -154l-30 -136h-67l-61 -60l31 -15l17 15h67l-64 -302q-15 -68 -35 -99q-9 4 -21 21q-3 3 -9 12q-4 6 -12 19.5t-15 24.5l-83 -64 q7 -8 15.5 -19.5t13.5 -17.5q3 -5 6 -8t5 -6q5 -8 8.5 -12.5t4.5 -7.5q11 -14 31 -14q4 0 10 2t16 5q30 15 48.5 25t25.5 15q75 53 103 187l51 239h76l52 57l-25 17l-14 -14h-77l41 185q13 65 23 90q4 14 14 32l9 -8q2 -3 5 -6.5t7 -6.5h-1q32 -38 43 -55z" />
<glyph unicode="&#x2c6;" d="M203 619q6 -2 8.5 -5t4.5 -6l83 -99v-2q3 -6 5.5 -10.5l2.5 -4.5q0 -14 -15 -14h-80l-30 56l-29 -56h-80q-15 0 -15 14l2 4.5t6 10.5v2l82 99q2 7 14 11h41z" />
<glyph unicode="&#x2dc;" d="M317 566q-5 0 -15 -6q-7 -3 -15 -6t-12 -3q-5 0 -13 2t-19 5q-16 5 -36.5 9t-46.5 4q-39 0 -85 -32q-37 -26 -37 -48q0 -8 3.5 -13t8.5 -5v20q-1 0 17 0.5t51 0.5q4 0 41 -8q17 -4 31.5 -6t27.5 -2q30 0 58 17l10 7h-1q17 11 31 22t14 26q0 10 -9 15z" />
<glyph unicode="&#x2013;" horiz-adv-x="500" d="M504 266q0 24 -38 24h-6l-376 -13q-56 -1 -56 -47q0 -15 11 -27.5t25 -12.5l378 8q25 0 43.5 21.5t18.5 46.5z" />
<glyph unicode="&#x2014;" horiz-adv-x="1000" d="M1008 266q0 24 -38 24h-6l-880 -13q-56 -1 -56 -47q0 -15 11 -27.5t25 -12.5l882 8q25 0 43.5 21.5t18.5 46.5z" />
<glyph unicode="&#x2018;" horiz-adv-x="230" d="M202 678q0 34 -21 34q-15 0 -24 -9l-111 -121q-9 -9 -9 -21q0 -13 13 -26l56 -54q6 -6 14 -6q10 0 20 10l57 59q7 9 7 18q0 11 -8 21l-35 43l25 25q16 16 16 27z" />
<glyph unicode="&#x2019;" horiz-adv-x="230" d="M195 604q9 9 9 21q0 13 -13 26l-56 54q-6 6 -14 6q-10 0 -20 -10l-57 -59q-7 -9 -7 -18q0 -12 8 -21l35 -43q-4 -5 -9 -9.5t-16 -15.5q-16 -16 -16 -27q0 -34 21 -34q15 0 24 9z" />
<glyph unicode="&#x201a;" horiz-adv-x="230" d="M195 9q9 9 9 21q0 13 -13 26l-56 54q-6 6 -14 6q-10 0 -20 -10l-57 -59q-7 -9 -7 -18q0 -12 8 -21l35 -42q-4 -4 -9 -8.5t-16 -16.5q-16 -16 -16 -27q0 -34 21 -34q15 0 24 9z" />
<glyph unicode="&#x201c;" horiz-adv-x="377" d="M360 678q0 34 -21 34q-15 0 -24 -9l-111 -121q-9 -9 -9 -21q0 -13 13 -26l56 -54q6 -6 14 -6q10 0 20 10l57 59q7 9 7 18q0 11 -8 21l-35 43l25 25q16 16 16 27zM188 678q0 34 -21 34q-15 0 -24 -9l-111 -121q-9 -9 -9 -21q0 -13 13 -26l56 -54q6 -6 14 -6q10 0 20 10 l57 59q7 9 7 18q0 11 -8 21l-35 43l25 25q16 16 16 27z" />
<glyph unicode="&#x201d;" horiz-adv-x="378" d="M185 604q6 6 8 14q2 -9 8 -15l35 -43q-4 -5 -9 -9.5t-16 -15.5q-16 -16 -16 -27q0 -34 21 -34q15 0 24 9l111 121q9 9 9 21q0 13 -13 26l-56 54q-6 6 -14 6q-10 0 -20 -10l-57 -59q-2 -3 -4 -5.5t-3 -6.5q-2 10 -12 21l-56 54q-6 6 -14 6q-10 0 -20 -10l-57 -59 q-7 -9 -7 -18q0 -12 8 -21l35 -43q-4 -5 -9 -9.5t-16 -15.5q-16 -16 -16 -27q0 -34 21 -34q15 0 24 9z" />
<glyph unicode="&#x201e;" horiz-adv-x="378" d="M185 9q6 6 8 14q2 -9 8 -15l35 -42q-4 -4 -9 -8.5t-16 -16.5q-16 -16 -16 -27q0 -34 21 -34q15 0 24 9l111 120q9 9 9 21q0 13 -13 26l-56 54q-6 6 -14 6q-10 0 -20 -10l-57 -59q-2 -3 -4 -5.5t-3 -6.5q-2 10 -12 21l-56 54q-6 6 -14 6q-10 0 -20 -10l-57 -59 q-7 -9 -7 -18q0 -12 8 -21l35 -42q-4 -4 -9 -8.5t-16 -16.5q-16 -16 -16 -27q0 -34 21 -34q15 0 24 9z" />
<glyph unicode="&#x2020;" horiz-adv-x="351" d="M345 373v115l-141 -29l27 222h-107l26 -222l-142 29v-115l142 28l-34 -580h120l-32 580z" />
<glyph unicode="&#x2021;" horiz-adv-x="351" d="M345 12v115l-141 -29l18 152l-18 151l141 -28v115l-141 -29l27 222h-107l26 -222l-142 29v-115l141 28l-17 -151l17 -152l-141 29v-115l142 28l-26 -219h107l-27 219z" />
<glyph unicode="&#x2022;" horiz-adv-x="338" d="M325 313q0 164 -123 164q-78 0 -130 -57q-52 -55 -52 -143q0 -40 10 -72.5t28 -56t43 -36t55 -12.5q31 0 73 26q57 34 76 74v-1q20 37 20 114z" />
<glyph unicode="&#x2026;" horiz-adv-x="1000" d="M582 0q10 12 10 23q0 12 -15 24l-53 43q-4 2 -6.5 3.5t-7.5 1.5q-11 0 -18 -10v1l-43 -50q-10 -12 -10 -22q0 -13 14 -23h-1l47 -41v1q9 -9 20 -9q13 0 21 11v-1zM250 0q10 12 10 23q0 12 -15 24l-53 43q-4 2 -6.5 3.5t-7.5 1.5q-11 0 -18 -10v1l-43 -50q-10 -12 -10 -22 q0 -13 14 -23h-1l47 -41v1q9 -9 20 -9q13 0 21 11v-1zM914 0q10 12 10 23q0 12 -15 24l-53 43q-8 5 -14 5q-11 0 -18 -10v1l-43 -50q-10 -12 -10 -22q0 -13 14 -23h-1l47 -41v1q9 -9 20 -9q13 0 21 11v-1z" />
<glyph unicode="&#x2030;" horiz-adv-x="675" d="M418 562q2 4 2 10q0 26 -30 26q-32 0 -44 -25l-249 -499v1q-13 -26 -28 -51t-33 -50q-28 -42 -28 -55q0 -7 20.5 -15t42.5 -8q21 0 35 9zM252 469q0 134 -94 134q-53 0 -93 -45q-40 -46 -40 -103q0 -65 28.5 -100.5t78.5 -35.5q120 0 120 150zM653 104q0 127 -88 127 q-59 0 -95 -44t-36 -114q0 -58 25 -91.5t69 -33.5q125 0 125 156zM429 101q0 127 -88 127q-59 0 -95 -44t-36 -114q0 -58 25 -91.5t69 -33.5q125 0 125 156zM183 426q0 -58 -27 -58q-23 0 -42 31h1q-21 36 -21 68q0 31 12 58q10 24 21 24q26 0 41 -33.5t15 -89.5zM360 64 q0 -65 -27 -65q-23 0 -39.5 23t-16.5 58q0 42 8 68.5t21 26.5q23 0 38.5 -32t15.5 -79zM584 67q0 -65 -27 -65q-23 0 -39.5 23t-16.5 58q0 42 8 68.5t21 26.5q23 0 38.5 -32t15.5 -79z" />
<glyph unicode="&#x2039;" horiz-adv-x="217" d="M197 87l-67 170l67 156h-43l-119 -134q-15 -18 -15 -28t15 -28l118 -134z" />
<glyph unicode="&#x203a;" horiz-adv-x="217" d="M191 251q0 10 -15 28l-120 134h-42l67 -156l-67 -170l42 2l120 134q15 18 15 28z" />
<glyph unicode="&#x2122;" horiz-adv-x="1180" d="M1159 171v49l-79 17v353q0 24 5 30q7 10 46 12v54l-136 -22h-70v-50h47q2 0 2 2q0 -11 -39 -95q-36 -82 -57.5 -129.5t-27.5 -62.5q-1 2 -1.5 4t-1.5 5v-1l-3 9l-55 144q-7 17 -22.5 49t-40.5 80l38 15l-15 46q-2 0 -18 -4t-39 -13h1q-33 -11 -55 -11h-100v-51h75 q10 0 10 -21q0 -38 -24 -174l-26 -147q-6 -35 -63 -41v-49q2 0 15 1t28 3t27 3t21 1q26 0 53.5 -1t46.5 -3v54h-75h-1q0 3 2 9l42 281q34 -60 54 -106q15 -35 28 -74.5t25 -84.5q4 -14 7 -24t5 -17q2 -10 2 -9q9 -21 30 -21q18 0 28 22q5 11 9.5 23t9.5 24l99 209 q7 15 11.5 25t7.5 17q-1 -8 -1 -22v-32v-191q0 -21 -12 -21h-37v-54q2 0 18 0.5t35 2.5q37 3 46 3q28 0 63 -6zM545 684q0 22 -41 39l-49 -33q17 -18 17 -22q0 -10 -18 -10h-4l-340 8h-3q-49 0 -77.5 -26.5t-28.5 -72.5q0 -22 25 -46l32 17q-4 15 -5 22.5t-1 10.5 q0 18 104 18q51 0 60 -6q7 -4 7 -38v-240q0 -28 -8 -66q-21 -4 -37 -5.5t-28 -3.5q-17 -4 -29.5 -6.5t-20.5 -4.5v-53q51 9 89 14t62 5q29 0 78 -1t107 -3v48l-106 11h1q-5 2 -5 12v323q104 3 163 33h-1q29 14 43 33.5t14 42.5z" />
<glyph unicode="&#x25fc;" horiz-adv-x="415" d="M0 415h415v-415h-415v415z" />
<glyph unicode="&#xe002;" horiz-adv-x="500" />
</font>
</defs>
</svg>
